<svg id="Common" xmlns="http://www.w3.org/2000/svg" viewBox="0 0 204.09 73.7"><defs><style>.cls-1{fill:#67be64;}.cls-2{fill:#fff;}</style></defs><title>Abundant</title><rect class="cls-1" x="31.18" y="25.43" width="141.73" height="22.68" rx="11.34"/><path class="cls-2" d="M75.64,32.63h1.19L81,42.54H79.45l-1-2.45H73.86l-1,2.45H71.37ZM78,38.92l-1.81-4.55h0l-1.83,4.55Z"/><path class="cls-2" d="M81.93,32h1.23v4.9h0a2.22,2.22,0,0,1,.94-.82,3,3,0,0,1,1.32-.3,3.34,3.34,0,0,1,1.36.27,3.06,3.06,0,0,1,1,.73,3.09,3.09,0,0,1,.66,1.11,4.06,4.06,0,0,1,0,2.75,3.18,3.18,0,0,1-1.7,1.85,3.51,3.51,0,0,1-1.36.26,3,3,0,0,1-1.28-.29,2.29,2.29,0,0,1-1-.83h0v.95H81.93Zm3.37,9.58a2.18,2.18,0,0,0,.89-.18,2,2,0,0,0,.67-.48,2.14,2.14,0,0,0,.42-.72,3,3,0,0,0,0-1.87,2.14,2.14,0,0,0-.42-.72,2,2,0,0,0-1.56-.65,2.11,2.11,0,0,0-.89.17,2,2,0,0,0-.67.48,2,2,0,0,0-.43.72,3,3,0,0,0,0,1.87,2,2,0,0,0,.43.72,1.83,1.83,0,0,0,.67.48A2.11,2.11,0,0,0,85.3,41.54Z"/><path class="cls-2" d="M96,42.54H94.81v-1h0a1.79,1.79,0,0,1-.8.86,2.65,2.65,0,0,1-1.33.33,2.76,2.76,0,0,1-.91-.15,1.83,1.83,0,0,1-.74-.45,2.22,2.22,0,0,1-.52-.79,3.24,3.24,0,0,1-.19-1.14V35.91h1.24v3.92a2.3,2.3,0,0,0,.12.79,1.33,1.33,0,0,0,.33.53,1.1,1.1,0,0,0,.47.29,1.49,1.49,0,0,0,.55.1,2.09,2.09,0,0,0,.72-.13,1.48,1.48,0,0,0,.57-.4,1.77,1.77,0,0,0,.38-.69,3,3,0,0,0,.14-1V35.91H96Z"/><path class="cls-2" d="M97.91,35.91h1.23v1h0a1.86,1.86,0,0,1,.81-.86,2.65,2.65,0,0,1,1.33-.33,2.74,2.74,0,0,1,.9.15,2,2,0,0,1,.75.45,2.34,2.34,0,0,1,.51.79,3.05,3.05,0,0,1,.2,1.14v4.27h-1.24V38.62a2.34,2.34,0,0,0-.12-.79,1.41,1.41,0,0,0-.33-.53,1.28,1.28,0,0,0-.47-.29,1.73,1.73,0,0,0-.56-.09,2.08,2.08,0,0,0-.71.12,1.51,1.51,0,0,0-.57.4,1.92,1.92,0,0,0-.39.69,3.28,3.28,0,0,0-.13,1v3.41H97.91Z"/><path class="cls-2" d="M112,42.54h-1.23v-.95h0a2.35,2.35,0,0,1-1,.83,3,3,0,0,1-1.28.29,3.51,3.51,0,0,1-1.36-.26,3,3,0,0,1-1-.75,3.32,3.32,0,0,1-.67-1.1,4.23,4.23,0,0,1,0-2.75,3.26,3.26,0,0,1,.67-1.11,3,3,0,0,1,1-.73,3.34,3.34,0,0,1,1.36-.27,3,3,0,0,1,1.32.3,2.22,2.22,0,0,1,.94.82h0V32H112Zm-3.37-1a2.11,2.11,0,0,0,.89-.18,1.83,1.83,0,0,0,.67-.48,2,2,0,0,0,.43-.72,3,3,0,0,0,0-1.87,2,2,0,0,0-.43-.72,2,2,0,0,0-.67-.48,2.11,2.11,0,0,0-.89-.17,2.14,2.14,0,0,0-.89.17,2,2,0,0,0-.67.48,2.14,2.14,0,0,0-.42.72,3,3,0,0,0,0,1.87,2.14,2.14,0,0,0,.42.72,1.91,1.91,0,0,0,.67.48A2.14,2.14,0,0,0,108.65,41.54Z"/><path class="cls-2" d="M113.91,36.72a3.55,3.55,0,0,1,1.2-.74,4.16,4.16,0,0,1,1.37-.24,3.71,3.71,0,0,1,1.23.18,2.45,2.45,0,0,1,.84.49,2,2,0,0,1,.49.71,2.31,2.31,0,0,1,.15.83v3.39c0,.23,0,.45,0,.64s0,.39,0,.56h-1.1c0-.33,0-.67,0-1h0a2.4,2.4,0,0,1-1,.91,3.08,3.08,0,0,1-1.3.26,3,3,0,0,1-.86-.12,2.26,2.26,0,0,1-.72-.38,1.76,1.76,0,0,1-.48-.63,1.91,1.91,0,0,1-.18-.86,1.89,1.89,0,0,1,.28-1.07,2.08,2.08,0,0,1,.76-.71,3.83,3.83,0,0,1,1.14-.39,7.66,7.66,0,0,1,1.39-.12h.9v-.28a1.52,1.52,0,0,0-.09-.51,1.44,1.44,0,0,0-.29-.45,1.35,1.35,0,0,0-.48-.32,1.76,1.76,0,0,0-.68-.12,2.38,2.38,0,0,0-.63.07,2.26,2.26,0,0,0-.48.17,1.8,1.8,0,0,0-.4.25l-.34.26Zm3.48,2.63c-.3,0-.59,0-.9,0a3.37,3.37,0,0,0-.83.19A1.5,1.5,0,0,0,115,40a1,1,0,0,0,.14,1.47,1.79,1.79,0,0,0,1,.25,1.91,1.91,0,0,0,.86-.17,1.55,1.55,0,0,0,.57-.46,1.74,1.74,0,0,0,.32-.62,2.65,2.65,0,0,0,.09-.68v-.42Z"/><path class="cls-2" d="M121,35.91h1.23v1h0a1.77,1.77,0,0,1,.81-.86,2.59,2.59,0,0,1,1.32-.33,2.74,2.74,0,0,1,.9.15,1.91,1.91,0,0,1,.75.45,2.22,2.22,0,0,1,.52.79,3.28,3.28,0,0,1,.19,1.14v4.27h-1.23V38.62a2.33,2.33,0,0,0-.13-.79,1.41,1.41,0,0,0-.33-.53,1.2,1.2,0,0,0-.47-.29,1.71,1.71,0,0,0-.55-.09,2,2,0,0,0-.71.12,1.55,1.55,0,0,0-.58.4,1.9,1.9,0,0,0-.38.69,3.26,3.26,0,0,0-.14,1v3.41H121Z"/><path class="cls-2" d="M132.08,37h-1.77v3c0,.19,0,.37,0,.55a1.26,1.26,0,0,0,.1.49.79.79,0,0,0,.27.35.89.89,0,0,0,.54.14,2.3,2.3,0,0,0,.45,0,1.22,1.22,0,0,0,.43-.15v1.15a1.67,1.67,0,0,1-.57.17,4.66,4.66,0,0,1-.54.05,2.48,2.48,0,0,1-1.1-.2,1.43,1.43,0,0,1-.58-.53,1.84,1.84,0,0,1-.22-.72c0-.26,0-.53,0-.8V37h-1.42V35.91h1.42V34.05h1.23v1.86h1.77Z"/></svg>