<svg xmlns="http://www.w3.org/2000/svg" viewBox="0 0 204.09 73.7"><defs><style>.cls-1{fill:#8074ad;}.cls-2{fill:#fff;}</style></defs><title>At_Risk</title><g id="Status"><rect class="cls-1" x="31.18" y="19.76" width="141.73" height="34.02" rx="11.34"/><path class="cls-2" d="M84.66,32.63h1.19L90,42.54H88.47l-1-2.45H82.88l-1,2.45H80.39ZM87,38.92l-1.8-4.55h0l-1.83,4.55Z"/><path class="cls-2" d="M94.42,37H92.66v3c0,.19,0,.37,0,.55a1.47,1.47,0,0,0,.1.49.74.74,0,0,0,.28.35.89.89,0,0,0,.54.14,2.48,2.48,0,0,0,.45,0,1.24,1.24,0,0,0,.42-.15v1.15a1.54,1.54,0,0,1-.57.17,4.66,4.66,0,0,1-.54.05,2.51,2.51,0,0,1-1.1-.2,1.34,1.34,0,0,1-.57-.53,1.56,1.56,0,0,1-.22-.72,7,7,0,0,1,0-.8V37H90V35.91h1.42V34.05h1.24v1.86h1.76Z"/><path class="cls-2" d="M100.13,32.63h3.41a3.93,3.93,0,0,1,1.53.26,2.52,2.52,0,0,1,1,.66,2.11,2.11,0,0,1,.49.89,3.78,3.78,0,0,1,.14,1,2.63,2.63,0,0,1-1.39,2.32,2.71,2.71,0,0,1-1,.3L107,42.54h-1.65l-2.46-4.36h-1.47v4.36h-1.31ZM101.44,37h1.73a4.87,4.87,0,0,0,.76-.06,2.3,2.3,0,0,0,.67-.23,1.3,1.3,0,0,0,.47-.49,1.63,1.63,0,0,0,.18-.82,1.66,1.66,0,0,0-.18-.82,1.21,1.21,0,0,0-.47-.48,2,2,0,0,0-.67-.23,4.87,4.87,0,0,0-.76-.06h-1.73Z"/><path class="cls-2" d="M108,33.53a.89.89,0,0,1,.27-.65.82.82,0,0,1,.63-.28.84.84,0,0,1,.64.28.92.92,0,0,1,0,1.3.87.87,0,0,1-.64.27.85.85,0,0,1-.63-.27A.89.89,0,0,1,108,33.53Zm.29,2.38h1.23v6.63h-1.23Z"/><path class="cls-2" d="M114.92,37.57a2.23,2.23,0,0,0-.54-.47,1.62,1.62,0,0,0-.79-.18,1.53,1.53,0,0,0-.76.18.6.6,0,0,0-.32.56.64.64,0,0,0,.18.47,1.55,1.55,0,0,0,.44.3,3.09,3.09,0,0,0,.54.17l.49.09a6.62,6.62,0,0,1,.75.24,2.25,2.25,0,0,1,.6.37,1.56,1.56,0,0,1,.4.54,2.07,2.07,0,0,1,.14.79,1.78,1.78,0,0,1-.23.95,2.12,2.12,0,0,1-.6.66,2.64,2.64,0,0,1-.84.36,4.49,4.49,0,0,1-1,.11,3.62,3.62,0,0,1-1.41-.25,2.61,2.61,0,0,1-1.09-.92l.93-.79a3.57,3.57,0,0,0,.67.55,1.63,1.63,0,0,0,.9.24,2.61,2.61,0,0,0,.48,0,1.6,1.6,0,0,0,.42-.16,1.08,1.08,0,0,0,.3-.26.62.62,0,0,0,.12-.38.69.69,0,0,0-.17-.46,1.3,1.3,0,0,0-.41-.28,2.78,2.78,0,0,0-.51-.17l-.47-.11a7.57,7.57,0,0,1-.76-.22,2.72,2.72,0,0,1-.63-.34,1.5,1.5,0,0,1-.43-.53,1.72,1.72,0,0,1-.17-.8,1.87,1.87,0,0,1,.21-.9,2,2,0,0,1,.57-.64,2.76,2.76,0,0,1,.79-.38,3.48,3.48,0,0,1,.9-.12,3.26,3.26,0,0,1,1.26.25,2,2,0,0,1,1,.84Z"/><path class="cls-2" d="M117.54,32h1.24v6.83l2.79-2.87h1.71l-3,3,3.28,3.61h-1.75l-3-3.44v3.44h-1.24Z"/></g></svg>