<svg id="Common" xmlns="http://www.w3.org/2000/svg" viewBox="0 0 204.09 73.7"><defs><style>.cls-1{fill:#a6ce66;}.cls-2{fill:#fff;}</style></defs><title>Common</title><rect class="cls-1" x="31.18" y="25.43" width="141.73" height="22.68" rx="11.34"/><path class="cls-2" d="M81.62,34.77a2.76,2.76,0,0,0-1-.84,3.12,3.12,0,0,0-1.3-.29,3.46,3.46,0,0,0-1.49.31,3.33,3.33,0,0,0-1.13.87,3.75,3.75,0,0,0-.73,1.28,4.5,4.5,0,0,0-.27,1.57,4.61,4.61,0,0,0,.25,1.49,4,4,0,0,0,.71,1.23,3.45,3.45,0,0,0,1.14.84,3.68,3.68,0,0,0,1.52.31,3,3,0,0,0,1.46-.35,3.22,3.22,0,0,0,1.07-1l1.11.85a4.47,4.47,0,0,1-.38.44,3.86,3.86,0,0,1-.73.57,4.81,4.81,0,0,1-1.09.51,5,5,0,0,1-3.54-.23,5,5,0,0,1-1.58-1.18,5.18,5.18,0,0,1-1-1.64,5.23,5.23,0,0,1-.34-1.86,5.87,5.87,0,0,1,.37-2.12,4.94,4.94,0,0,1,1-1.68,4.62,4.62,0,0,1,1.6-1.1,5.24,5.24,0,0,1,2-.39,4.93,4.93,0,0,1,1.88.38,3.57,3.57,0,0,1,1.52,1.16Z"/><path class="cls-2" d="M83.88,39.23a3.4,3.4,0,0,1,.27-1.36,3.45,3.45,0,0,1,.73-1.11A3.32,3.32,0,0,1,86,36a3.44,3.44,0,0,1,1.36-.27,3.4,3.4,0,0,1,2.45,1,3.63,3.63,0,0,1,.73,1.11,3.4,3.4,0,0,1,.27,1.36,3.44,3.44,0,0,1-.27,1.36,3.37,3.37,0,0,1-1.83,1.85,3.39,3.39,0,0,1-1.35.27,3.4,3.4,0,0,1-2.45-1,3.35,3.35,0,0,1-.73-1.11A3.44,3.44,0,0,1,83.88,39.23Zm1.31,0a2.83,2.83,0,0,0,.15.93,2.16,2.16,0,0,0,.43.72,1.83,1.83,0,0,0,.67.48,2.11,2.11,0,0,0,.89.18,2.14,2.14,0,0,0,.89-.18,1.91,1.91,0,0,0,.67-.48,2.14,2.14,0,0,0,.42-.72,2.81,2.81,0,0,0,0-1.87,2.14,2.14,0,0,0-.42-.72,2,2,0,0,0-.67-.48,2.14,2.14,0,0,0-.89-.17,2.11,2.11,0,0,0-.89.17,2,2,0,0,0-.67.48,2.16,2.16,0,0,0-.43.72A2.85,2.85,0,0,0,85.19,39.23Z"/><path class="cls-2" d="M92.33,35.91h1.15v1h0a1.13,1.13,0,0,1,.22-.35,2.39,2.39,0,0,1,.43-.4,3.09,3.09,0,0,1,.63-.32,2.32,2.32,0,0,1,.8-.13,2.1,2.1,0,0,1,2,1.23,2.09,2.09,0,0,1,.89-.92,2.38,2.38,0,0,1,1.16-.31,2.63,2.63,0,0,1,1.24.25,2,2,0,0,1,.75.67,2.57,2.57,0,0,1,.38.93,6.5,6.5,0,0,1,.1,1.09v3.86H100.9V38.85a5.71,5.71,0,0,0-.05-.73,1.74,1.74,0,0,0-.2-.62,1.13,1.13,0,0,0-.42-.42,1.44,1.44,0,0,0-.73-.16,1.41,1.41,0,0,0-1.27.56,2.45,2.45,0,0,0-.39,1.44v3.62H96.61V39.07a5.83,5.83,0,0,0,0-.87,2,2,0,0,0-.19-.68,1,1,0,0,0-.41-.44,1.37,1.37,0,0,0-.72-.16,1.51,1.51,0,0,0-.63.13,1.41,1.41,0,0,0-.54.4,1.84,1.84,0,0,0-.37.68,2.84,2.84,0,0,0-.14,1v3.44H92.33Z"/><path class="cls-2" d="M104,35.91h1.15v1h0a1.27,1.27,0,0,1,.21-.35,2.17,2.17,0,0,1,.44-.4,3.09,3.09,0,0,1,.63-.32,2.28,2.28,0,0,1,.8-.13,2.1,2.1,0,0,1,2,1.23,2,2,0,0,1,.89-.92,2.38,2.38,0,0,1,1.16-.31,2.61,2.61,0,0,1,1.23.25,2,2,0,0,1,.75.67,2.41,2.41,0,0,1,.38.93,5.6,5.6,0,0,1,.1,1.09v3.86h-1.23V38.85a4.33,4.33,0,0,0,0-.73,1.73,1.73,0,0,0-.19-.62,1.24,1.24,0,0,0-.43-.42,1.39,1.39,0,0,0-.73-.16,1.42,1.42,0,0,0-1.27.56,2.52,2.52,0,0,0-.38,1.44v3.62h-1.23V39.07a7.57,7.57,0,0,0,0-.87,2.26,2.26,0,0,0-.19-.68,1.09,1.09,0,0,0-.41-.44,1.37,1.37,0,0,0-.72-.16,1.59,1.59,0,0,0-.64.13,1.49,1.49,0,0,0-.54.4,1.84,1.84,0,0,0-.37.68,3.1,3.1,0,0,0-.14,1v3.44H104Z"/><path class="cls-2" d="M115.34,39.23a3.4,3.4,0,0,1,.27-1.36,3.63,3.63,0,0,1,.73-1.11,3.4,3.4,0,0,1,2.45-1,3.44,3.44,0,0,1,1.36.27,3.32,3.32,0,0,1,1.09.75,3.45,3.45,0,0,1,.73,1.11,3.4,3.4,0,0,1,.27,1.36,3.44,3.44,0,0,1-.27,1.36,3.35,3.35,0,0,1-.73,1.11,3.4,3.4,0,0,1-2.45,1,3.39,3.39,0,0,1-1.35-.27,3.37,3.37,0,0,1-1.83-1.85A3.44,3.44,0,0,1,115.34,39.23Zm1.32,0a2.59,2.59,0,0,0,.15.93,2.14,2.14,0,0,0,.42.72,1.91,1.91,0,0,0,.67.48,2.14,2.14,0,0,0,.89.18,2.11,2.11,0,0,0,.89-.18,1.83,1.83,0,0,0,.67-.48,2.16,2.16,0,0,0,.43-.72,3,3,0,0,0,0-1.87,2.16,2.16,0,0,0-.43-.72,2,2,0,0,0-.67-.48,2.11,2.11,0,0,0-.89-.17,2.14,2.14,0,0,0-.89.17,2,2,0,0,0-.67.48,2.14,2.14,0,0,0-.42.72A2.61,2.61,0,0,0,116.66,39.23Z"/><path class="cls-2" d="M123.79,35.91H125v1h0a1.77,1.77,0,0,1,.81-.86,2.59,2.59,0,0,1,1.32-.33,2.74,2.74,0,0,1,.9.15,1.91,1.91,0,0,1,.75.45,2.22,2.22,0,0,1,.52.79,3.28,3.28,0,0,1,.19,1.14v4.27h-1.23V38.62a2.33,2.33,0,0,0-.13-.79,1.41,1.41,0,0,0-.33-.53,1.2,1.2,0,0,0-.47-.29,1.71,1.71,0,0,0-.55-.09,2.09,2.09,0,0,0-.72.12,1.6,1.6,0,0,0-.57.4,1.9,1.9,0,0,0-.38.69,3.26,3.26,0,0,0-.14,1v3.41h-1.23Z"/></svg>