<svg xmlns="http://www.w3.org/2000/svg" viewBox="0 0 204.09 73.7"><defs><style>.cls-1{fill:#3e3e3e;}.cls-2{fill:#fff;}</style></defs><title>Endemic</title><g id="Endemic"><rect class="cls-1" x="31.18" y="25.43" width="141.73" height="22.68" rx="11.34"/><path class="cls-2" d="M76.54,32.63H82.8v1.26H77.86v3h4.6v1.26h-4.6v3.17H83v1.26h-6.5Z"/><path class="cls-2" d="M84.59,35.91h1.23v1h0a1.86,1.86,0,0,1,.81-.86A2.6,2.6,0,0,1,88,35.74a2.64,2.64,0,0,1,.89.15,2,2,0,0,1,.76.45,2.34,2.34,0,0,1,.51.79,3,3,0,0,1,.19,1.14v4.27H89.11V38.62a2.34,2.34,0,0,0-.12-.79,1.71,1.71,0,0,0-.33-.53,1.36,1.36,0,0,0-.47-.29,1.77,1.77,0,0,0-.56-.09,2.08,2.08,0,0,0-.71.12,1.63,1.63,0,0,0-.58.4,1.9,1.9,0,0,0-.38.69,3.26,3.26,0,0,0-.14,1v3.41H84.59Z"/><path class="cls-2" d="M98.71,42.54H97.47v-.95h0a2.41,2.41,0,0,1-1,.83,3.06,3.06,0,0,1-1.28.29,3.47,3.47,0,0,1-1.36-.26,2.93,2.93,0,0,1-1-.75,3.32,3.32,0,0,1-.67-1.1,4.23,4.23,0,0,1,0-2.75,3.26,3.26,0,0,1,.67-1.11,2.88,2.88,0,0,1,1-.73,3.3,3.3,0,0,1,1.36-.27,3,3,0,0,1,1.31.3,2.25,2.25,0,0,1,1,.82h0V32h1.24Zm-3.37-1a2.14,2.14,0,0,0,.89-.18,1.91,1.91,0,0,0,.67-.48,2.14,2.14,0,0,0,.42-.72,3,3,0,0,0,0-1.87,2.14,2.14,0,0,0-.42-.72,2,2,0,0,0-.67-.48,2.14,2.14,0,0,0-.89-.17,2.11,2.11,0,0,0-.89.17,2,2,0,0,0-.67.48,2.16,2.16,0,0,0-.43.72,3,3,0,0,0,0,1.87,2.16,2.16,0,0,0,.43.72,1.83,1.83,0,0,0,.67.48A2.11,2.11,0,0,0,95.34,41.54Z"/><path class="cls-2" d="M101.5,39.69a1.73,1.73,0,0,0,.18.79,2.07,2.07,0,0,0,1.19,1,2.52,2.52,0,0,0,.82.14,1.82,1.82,0,0,0,1-.27,3.75,3.75,0,0,0,.78-.72l.93.72a3.37,3.37,0,0,1-2.87,1.36,3.59,3.59,0,0,1-1.39-.26,3.06,3.06,0,0,1-1.72-1.85,3.83,3.83,0,0,1-.23-1.37,3.64,3.64,0,0,1,.25-1.38,3.33,3.33,0,0,1,.7-1.11A3,3,0,0,1,102.2,36a3.31,3.31,0,0,1,1.34-.27,3.12,3.12,0,0,1,1.46.31,3,3,0,0,1,1,.8,3.25,3.25,0,0,1,.55,1.12,4.57,4.57,0,0,1,.17,1.27v.45Zm3.89-1a2.64,2.64,0,0,0-.13-.77,1.84,1.84,0,0,0-.35-.61,1.74,1.74,0,0,0-.58-.41,2.31,2.31,0,0,0-.82-.14,2.09,2.09,0,0,0-.83.17,2.15,2.15,0,0,0-1,1.08,1.88,1.88,0,0,0-.14.68Z"/><path class="cls-2" d="M108.18,35.91h1.15v1h0a1.27,1.27,0,0,1,.21-.35,2.17,2.17,0,0,1,.44-.4,3.09,3.09,0,0,1,.63-.32,2.28,2.28,0,0,1,.8-.13,2.23,2.23,0,0,1,1.22.31,2.3,2.3,0,0,1,.81.92,2,2,0,0,1,.88-.92,2.44,2.44,0,0,1,1.17-.31,2.61,2.61,0,0,1,1.23.25,2,2,0,0,1,.75.67,2.41,2.41,0,0,1,.38.93,5.6,5.6,0,0,1,.1,1.09v3.86h-1.23V38.85a5.71,5.71,0,0,0,0-.73,1.74,1.74,0,0,0-.2-.62,1.13,1.13,0,0,0-.42-.42,1.39,1.39,0,0,0-.73-.16,1.42,1.42,0,0,0-1.27.56,2.52,2.52,0,0,0-.38,1.44v3.62h-1.23V39.07a7.57,7.57,0,0,0,0-.87,2.26,2.26,0,0,0-.19-.68,1.09,1.09,0,0,0-.41-.44,1.37,1.37,0,0,0-.72-.16,1.59,1.59,0,0,0-.64.13,1.41,1.41,0,0,0-.54.4,1.77,1.77,0,0,0-.37.68,3.1,3.1,0,0,0-.14,1v3.44h-1.23Z"/><path class="cls-2" d="M119.65,33.53a.89.89,0,0,1,.27-.65.84.84,0,0,1,.64-.28.82.82,0,0,1,.63.28.92.92,0,0,1,0,1.3.85.85,0,0,1-.63.27.87.87,0,0,1-.64-.27A.89.89,0,0,1,119.65,33.53Zm.29,2.38h1.23v6.63h-1.23Z"/><path class="cls-2" d="M127.77,37.67a2.56,2.56,0,0,0-.72-.55,2.18,2.18,0,0,0-1.78,0,1.76,1.76,0,0,0-.63.52,2.41,2.41,0,0,0-.38.75,3,3,0,0,0-.13.89,2.58,2.58,0,0,0,.15.88,2.19,2.19,0,0,0,.43.72,2.07,2.07,0,0,0,.65.48,2,2,0,0,0,.86.18,2,2,0,0,0,.89-.19,2.24,2.24,0,0,0,.69-.56l.88.9a2.85,2.85,0,0,1-1.12.78,3.76,3.76,0,0,1-1.35.24,3.64,3.64,0,0,1-1.38-.25,3.14,3.14,0,0,1-1.77-1.8,3.93,3.93,0,0,1-.24-1.41,4,4,0,0,1,.24-1.41A3.1,3.1,0,0,1,124.82,36a3.77,3.77,0,0,1,2.75,0,3.08,3.08,0,0,1,1.13.79Z"/></g></svg>