<svg id="Common" xmlns="http://www.w3.org/2000/svg" viewBox="0 0 204.09 73.7"><defs><style>.cls-1{fill:#c6d353;}.cls-2{fill:#fff;}</style></defs><title>Locally_Common</title><rect class="cls-1" x="31.18" y="25.43" width="141.73" height="22.68" rx="11.34"/><path class="cls-2" d="M51.79,32.63H53.1v8.65h4.45v1.26H51.79Z"/><path class="cls-2" d="M58.27,39.23a3.4,3.4,0,0,1,.26-1.36,3.48,3.48,0,0,1,.74-1.11A3.22,3.22,0,0,1,60.36,36a3.54,3.54,0,0,1,2.71,0,3.36,3.36,0,0,1,1.1.75,3.63,3.63,0,0,1,.73,1.11,3.4,3.4,0,0,1,.27,1.36,3.44,3.44,0,0,1-.27,1.36,3.37,3.37,0,0,1-1.83,1.85,3.54,3.54,0,0,1-2.71,0,3.34,3.34,0,0,1-1.09-.74,3.38,3.38,0,0,1-.74-1.11A3.43,3.43,0,0,1,58.27,39.23Zm1.31,0a2.83,2.83,0,0,0,.15.93,2.14,2.14,0,0,0,.42.72,2,2,0,0,0,.68.48,2.11,2.11,0,0,0,.89.18,2.18,2.18,0,0,0,.89-.18,2,2,0,0,0,.67-.48,2.14,2.14,0,0,0,.42-.72,3,3,0,0,0,0-1.87,2.14,2.14,0,0,0-.42-.72,2,2,0,0,0-1.56-.65,2.06,2.06,0,0,0-1.57.65,2.14,2.14,0,0,0-.42.72A2.85,2.85,0,0,0,59.58,39.23Z"/><path class="cls-2" d="M71.35,37.67a2.39,2.39,0,0,0-.71-.55,2,2,0,0,0-.9-.19,1.87,1.87,0,0,0-.88.19,1.68,1.68,0,0,0-.63.52,2.43,2.43,0,0,0-.39.75,3.3,3.3,0,0,0-.13.89,2.58,2.58,0,0,0,.15.88,2.19,2.19,0,0,0,.43.72,2.07,2.07,0,0,0,.65.48,2.19,2.19,0,0,0,1.76,0,2.33,2.33,0,0,0,.68-.56l.88.9a2.68,2.68,0,0,1-1.12.78,3.76,3.76,0,0,1-1.35.24,3.56,3.56,0,0,1-1.37-.25,3.08,3.08,0,0,1-1.08-.71,3.15,3.15,0,0,1-.7-1.09,3.93,3.93,0,0,1-.24-1.41,4,4,0,0,1,.24-1.41A3.17,3.17,0,0,1,68.4,36a3.77,3.77,0,0,1,2.75,0,3,3,0,0,1,1.13.79Z"/><path class="cls-2" d="M73.34,36.72a3.55,3.55,0,0,1,1.2-.74,4.16,4.16,0,0,1,1.37-.24,3.71,3.71,0,0,1,1.23.18,2.45,2.45,0,0,1,.84.49,2,2,0,0,1,.49.71,2.31,2.31,0,0,1,.15.83v3.39c0,.23,0,.45,0,.64s0,.39,0,.56h-1.1c0-.33,0-.67,0-1h0a2.48,2.48,0,0,1-1,.91,3.11,3.11,0,0,1-1.3.26,3,3,0,0,1-.86-.12,2.26,2.26,0,0,1-.72-.38,1.91,1.91,0,0,1-.49-.63,2.06,2.06,0,0,1-.17-.86,1.89,1.89,0,0,1,.28-1.07,2.08,2.08,0,0,1,.76-.71,3.83,3.83,0,0,1,1.14-.39,7.66,7.66,0,0,1,1.39-.12h.9v-.28a1.52,1.52,0,0,0-.09-.51,1.44,1.44,0,0,0-.29-.45,1.35,1.35,0,0,0-.48-.32,1.76,1.76,0,0,0-.68-.12,2.38,2.38,0,0,0-.63.07,2.26,2.26,0,0,0-.48.17,1.8,1.8,0,0,0-.4.25l-.34.26Zm3.48,2.63c-.3,0-.59,0-.9,0a3.56,3.56,0,0,0-.84.19,1.53,1.53,0,0,0-.61.39,1,1,0,0,0,.14,1.47,1.79,1.79,0,0,0,1,.25,1.91,1.91,0,0,0,.86-.17,1.55,1.55,0,0,0,.57-.46,1.74,1.74,0,0,0,.32-.62,2.65,2.65,0,0,0,.09-.68v-.42Z"/><path class="cls-2" d="M80.51,32h1.23V42.54H80.51Z"/><path class="cls-2" d="M83.8,32H85V42.54H83.8Z"/><path class="cls-2" d="M86.22,35.91h1.43l1.92,5.18h0l1.84-5.18h1.31L89.67,44a8.51,8.51,0,0,1-.34.79,2.53,2.53,0,0,1-.42.61,1.64,1.64,0,0,1-.6.39,2.13,2.13,0,0,1-.85.14l-.55,0a1.82,1.82,0,0,1-.54-.15l.15-1.15a1.8,1.8,0,0,0,.74.16,1.34,1.34,0,0,0,.48-.08,1.11,1.11,0,0,0,.34-.22,1.8,1.8,0,0,0,.24-.35l.19-.44.4-1Z"/><path class="cls-2" d="M104.7,34.77a2.76,2.76,0,0,0-1-.84,3.12,3.12,0,0,0-1.3-.29,3.38,3.38,0,0,0-1.48.31,3.47,3.47,0,0,0-1.14.87A3.92,3.92,0,0,0,99,36.1a4.74,4.74,0,0,0-.26,1.57A4.61,4.61,0,0,0,99,39.16a4,4,0,0,0,.72,1.23,3.51,3.51,0,0,0,1.13.84,3.72,3.72,0,0,0,1.52.31,3,3,0,0,0,1.47-.35,3.32,3.32,0,0,0,1.07-1l1.1.85a4.47,4.47,0,0,1-.38.44,3.77,3.77,0,0,1-.72.57,5.26,5.26,0,0,1-1.09.51,5,5,0,0,1-3.55-.23,5.16,5.16,0,0,1-2.57-2.82,5.46,5.46,0,0,1-.34-1.86,6.09,6.09,0,0,1,.37-2.12,5,5,0,0,1,1-1.68,4.58,4.58,0,0,1,1.59-1.1,5.27,5.27,0,0,1,2.05-.39,5,5,0,0,1,1.89.38,3.54,3.54,0,0,1,1.51,1.16Z"/><path class="cls-2" d="M107,39.23a3.4,3.4,0,0,1,.27-1.36,3.63,3.63,0,0,1,.73-1.11,3.4,3.4,0,0,1,2.45-1,3.4,3.4,0,0,1,1.36.27,3.32,3.32,0,0,1,1.09.75,3.66,3.66,0,0,1,.74,1.11,3.58,3.58,0,0,1,.26,1.36,3.62,3.62,0,0,1-.26,1.36,3.54,3.54,0,0,1-.74,1.11,3.45,3.45,0,0,1-1.09.74,3.54,3.54,0,0,1-2.71,0,3.37,3.37,0,0,1-1.83-1.85A3.44,3.44,0,0,1,107,39.23Zm1.32,0a2.83,2.83,0,0,0,.15.93,2.14,2.14,0,0,0,.42.72,2,2,0,0,0,.67.48,2.14,2.14,0,0,0,.89.18,2.11,2.11,0,0,0,.89-.18,1.83,1.83,0,0,0,.67-.48,2,2,0,0,0,.43-.72,3,3,0,0,0,0-1.87,2,2,0,0,0-.43-.72,2,2,0,0,0-.67-.48,2.11,2.11,0,0,0-.89-.17,2,2,0,0,0-2,1.37A2.85,2.85,0,0,0,108.28,39.23Z"/><path class="cls-2" d="M115.41,35.91h1.15v1h0a1.27,1.27,0,0,1,.21-.35,2.17,2.17,0,0,1,.44-.4,3.09,3.09,0,0,1,.63-.32,2.28,2.28,0,0,1,.8-.13,2.23,2.23,0,0,1,1.22.31,2.3,2.3,0,0,1,.81.92,2,2,0,0,1,.88-.92,2.44,2.44,0,0,1,1.17-.31A2.61,2.61,0,0,1,124,36a2,2,0,0,1,.75.67,2.41,2.41,0,0,1,.38.93,5.6,5.6,0,0,1,.1,1.09v3.86H124V38.85a4.33,4.33,0,0,0,0-.73,1.74,1.74,0,0,0-.2-.62,1.13,1.13,0,0,0-.42-.42,1.39,1.39,0,0,0-.73-.16,1.42,1.42,0,0,0-1.27.56,2.52,2.52,0,0,0-.38,1.44v3.62H119.7V39.07a7.57,7.57,0,0,0,0-.87,2.26,2.26,0,0,0-.19-.68,1.09,1.09,0,0,0-.41-.44,1.37,1.37,0,0,0-.72-.16,1.59,1.59,0,0,0-.64.13,1.41,1.41,0,0,0-.54.4,1.84,1.84,0,0,0-.37.68,3.1,3.1,0,0,0-.14,1v3.44h-1.23Z"/><path class="cls-2" d="M127.07,35.91h1.16v1h0a1.13,1.13,0,0,1,.22-.35,2.39,2.39,0,0,1,.43-.4,3.09,3.09,0,0,1,.63-.32,2.28,2.28,0,0,1,.8-.13,2.1,2.1,0,0,1,2,1.23,2.09,2.09,0,0,1,.89-.92,2.38,2.38,0,0,1,1.16-.31,2.66,2.66,0,0,1,1.24.25,2,2,0,0,1,.75.67,2.39,2.39,0,0,1,.37.93,5.6,5.6,0,0,1,.11,1.09v3.86h-1.23V38.85a5.71,5.71,0,0,0-.05-.73,2,2,0,0,0-.2-.62,1.13,1.13,0,0,0-.42-.42,1.44,1.44,0,0,0-.73-.16,1.41,1.41,0,0,0-1.27.56,2.45,2.45,0,0,0-.39,1.44v3.62h-1.23V39.07a7.57,7.57,0,0,0-.05-.87,2,2,0,0,0-.19-.68,1,1,0,0,0-.41-.44,1.37,1.37,0,0,0-.72-.16,1.53,1.53,0,0,0-1.18.53,2.19,2.19,0,0,0-.37.68,3.12,3.12,0,0,0-.13,1v3.44h-1.24Z"/><path class="cls-2" d="M138.42,39.23a3.4,3.4,0,0,1,.27-1.36,3.63,3.63,0,0,1,.73-1.11,3.36,3.36,0,0,1,1.1-.75,3.54,3.54,0,0,1,2.71,0,3.22,3.22,0,0,1,1.09.75,3.48,3.48,0,0,1,.74,1.11,3.52,3.52,0,0,1-.74,3.83,3.34,3.34,0,0,1-1.09.74,3.54,3.54,0,0,1-2.71,0,3.37,3.37,0,0,1-1.83-1.85A3.44,3.44,0,0,1,138.42,39.23Zm1.32,0a2.83,2.83,0,0,0,.15.93,2.14,2.14,0,0,0,.42.72,2,2,0,0,0,.67.48,2.19,2.19,0,0,0,.9.18,2.1,2.1,0,0,0,.88-.18,2,2,0,0,0,.68-.48,2.14,2.14,0,0,0,.42-.72,3,3,0,0,0,0-1.87,2.14,2.14,0,0,0-.42-.72,2.05,2.05,0,0,0-1.56-.65,2.19,2.19,0,0,0-.9.17,2.16,2.16,0,0,0-.67.48,2.14,2.14,0,0,0-.42.72A2.85,2.85,0,0,0,139.74,39.23Z"/><path class="cls-2" d="M146.87,35.91h1.23v1h0a1.86,1.86,0,0,1,.81-.86,2.79,2.79,0,0,1,2.22-.18,2,2,0,0,1,.76.45,2.34,2.34,0,0,1,.51.79,3.06,3.06,0,0,1,.19,1.14v4.27h-1.23V38.62a2.34,2.34,0,0,0-.12-.79,1.71,1.71,0,0,0-.33-.53,1.36,1.36,0,0,0-.47-.29,1.77,1.77,0,0,0-.56-.09,2.08,2.08,0,0,0-.71.12,1.63,1.63,0,0,0-.58.4,1.9,1.9,0,0,0-.38.69,3.26,3.26,0,0,0-.14,1v3.41h-1.23Z"/></svg>