<svg xmlns="http://www.w3.org/2000/svg" viewBox="0 0 204.09 73.7"><defs><style>.cls-1{fill:#848484;}.cls-2{fill:#fff;}</style></defs><title>Native</title><g id="Endemic"><rect class="cls-1" x="31.18" y="25.43" width="141.73" height="22.68" rx="11.34"/><path class="cls-2" d="M82.89,32.63h1.72L90,40.78h0V32.63h1.31v9.91H89.62L84.23,34.4h0v8.14H82.89Z"/><path class="cls-2" d="M93.5,36.72A3.45,3.45,0,0,1,94.7,36a4.12,4.12,0,0,1,1.37-.24,3.75,3.75,0,0,1,1.23.18,2.45,2.45,0,0,1,.84.49,1.87,1.87,0,0,1,.48.71,2.12,2.12,0,0,1,.16.83v3.39c0,.23,0,.45,0,.64a4.75,4.75,0,0,0,0,.56h-1.1c0-.33,0-.67,0-1h0a2.46,2.46,0,0,1-1,.91,3.11,3.11,0,0,1-1.3.26,3,3,0,0,1-.86-.12,2.06,2.06,0,0,1-.72-.38,1.79,1.79,0,0,1-.49-.63,1.91,1.91,0,0,1-.17-.86,1.89,1.89,0,0,1,.28-1.07,2.08,2.08,0,0,1,.76-.71,3.83,3.83,0,0,1,1.14-.39,7.66,7.66,0,0,1,1.39-.12h.9v-.28a1.52,1.52,0,0,0-.09-.51,1.44,1.44,0,0,0-.29-.45,1.35,1.35,0,0,0-.48-.32,1.78,1.78,0,0,0-.69-.12,2.35,2.35,0,0,0-.62.07A2.08,2.08,0,0,0,95,37a1.8,1.8,0,0,0-.4.25l-.34.26ZM97,39.35c-.29,0-.59,0-.89,0a3.45,3.45,0,0,0-.84.19,1.53,1.53,0,0,0-.61.39.9.9,0,0,0-.24.65.91.91,0,0,0,.37.82,1.79,1.79,0,0,0,1,.25,1.93,1.93,0,0,0,.87-.17,1.73,1.73,0,0,0,.89-1.08,2.65,2.65,0,0,0,.09-.68v-.42Z"/><path class="cls-2" d="M104.05,37h-1.76v3c0,.19,0,.37,0,.55a1.47,1.47,0,0,0,.1.49.74.74,0,0,0,.28.35.89.89,0,0,0,.54.14,2.48,2.48,0,0,0,.45,0,1.17,1.17,0,0,0,.42-.15v1.15a1.54,1.54,0,0,1-.56.17,5,5,0,0,1-.55.05,2.51,2.51,0,0,1-1.1-.2,1.34,1.34,0,0,1-.57-.53,1.56,1.56,0,0,1-.22-.72c0-.26,0-.53,0-.8V37H99.63V35.91h1.42V34.05h1.24v1.86h1.76Z"/><path class="cls-2" d="M105.45,33.53a.89.89,0,0,1,.27-.65.82.82,0,0,1,.63-.28.84.84,0,0,1,.64.28.92.92,0,0,1,0,1.3.87.87,0,0,1-.64.27.85.85,0,0,1-.63-.27A.89.89,0,0,1,105.45,33.53Zm.29,2.38H107v6.63h-1.23Z"/><path class="cls-2" d="M108.15,35.91h1.42L111.51,41l1.87-5.08h1.31l-2.55,6.63h-1.35Z"/><path class="cls-2" d="M116.7,39.69a1.62,1.62,0,0,0,.19.79,1.91,1.91,0,0,0,.48.61,2.18,2.18,0,0,0,.7.39,2.57,2.57,0,0,0,.82.14,1.8,1.8,0,0,0,1-.27,3.31,3.31,0,0,0,.78-.72l.93.72a3.37,3.37,0,0,1-2.87,1.36,3.62,3.62,0,0,1-1.39-.26,3.11,3.11,0,0,1-1.06-.74,3.41,3.41,0,0,1-.66-1.11,4.06,4.06,0,0,1-.23-1.37,3.64,3.64,0,0,1,.25-1.38,3.33,3.33,0,0,1,.7-1.11A3.14,3.14,0,0,1,117.4,36a3.31,3.31,0,0,1,1.34-.27,3.09,3.09,0,0,1,1.46.31,2.85,2.85,0,0,1,1,.8,3.25,3.25,0,0,1,.55,1.12,4.58,4.58,0,0,1,.18,1.27v.45Zm3.89-1a2.64,2.64,0,0,0-.13-.77,1.68,1.68,0,0,0-.35-.61,1.65,1.65,0,0,0-.58-.41,2.21,2.21,0,0,0-.81-.14,2,2,0,0,0-1.47.63,1.94,1.94,0,0,0-.4.62,1.71,1.71,0,0,0-.15.68Z"/></g></svg>