<svg xmlns="http://www.w3.org/2000/svg" viewBox="0 0 204.09 73.7"><defs><style>.cls-1{fill:#9ad3e1;}.cls-2{fill:#fff;}</style></defs><title>Not_Threatened</title><g id="Status"><rect class="cls-1" x="31.18" y="25.43" width="141.73" height="22.68" rx="11.34"/><path class="cls-2" d="M53.71,32.63h1.72l5.34,8.15h0V32.63h1.31v9.91H60.44L55.05,34.4h0v8.14H53.71Z"/><path class="cls-2" d="M64,39.23a3.4,3.4,0,0,1,.27-1.36A3.63,3.63,0,0,1,65,36.76a3.4,3.4,0,0,1,2.45-1,3.4,3.4,0,0,1,1.36.27,3.32,3.32,0,0,1,1.09.75,3.66,3.66,0,0,1,.74,1.11,3.58,3.58,0,0,1,.26,1.36,3.62,3.62,0,0,1-.26,1.36,3.54,3.54,0,0,1-.74,1.11,3.45,3.45,0,0,1-1.09.74,3.54,3.54,0,0,1-2.71,0,3.37,3.37,0,0,1-1.83-1.85A3.44,3.44,0,0,1,64,39.23Zm1.32,0a2.83,2.83,0,0,0,.15.93,2.14,2.14,0,0,0,.42.72,2,2,0,0,0,.67.48,2.18,2.18,0,0,0,.89.18,2.11,2.11,0,0,0,.89-.18,1.83,1.83,0,0,0,.67-.48,2,2,0,0,0,.43-.72,3,3,0,0,0,0-1.87,2,2,0,0,0-.43-.72,2,2,0,0,0-.67-.48,2.11,2.11,0,0,0-.89-.17,2,2,0,0,0-1.56.65,2.14,2.14,0,0,0-.42.72A2.85,2.85,0,0,0,65.29,39.23Z"/><path class="cls-2" d="M75.9,37H74.13v3c0,.19,0,.37,0,.55a1.26,1.26,0,0,0,.1.49.79.79,0,0,0,.27.35.94.94,0,0,0,.54.14,2.3,2.3,0,0,0,.45,0,1.22,1.22,0,0,0,.43-.15v1.15a1.67,1.67,0,0,1-.57.17,4.66,4.66,0,0,1-.54.05,2.48,2.48,0,0,1-1.1-.2,1.43,1.43,0,0,1-.58-.53,1.84,1.84,0,0,1-.22-.72c0-.26,0-.53,0-.8V37H71.48V35.91H72.9V34.05h1.23v1.86H75.9Z"/><path class="cls-2" d="M83.63,33.89H80.51V32.63h7.56v1.26H85v8.65H83.63Z"/><path class="cls-2" d="M89.15,32h1.23v5h0a1.77,1.77,0,0,1,.81-.86,2.6,2.6,0,0,1,1.33-.33,2.68,2.68,0,0,1,.89.15,2,2,0,0,1,.76.45,2.34,2.34,0,0,1,.51.79,3,3,0,0,1,.19,1.14v4.27H93.67V38.62a2.34,2.34,0,0,0-.12-.79,1.71,1.71,0,0,0-.33-.53,1.19,1.19,0,0,0-.48-.29,1.67,1.67,0,0,0-.55-.09,2,2,0,0,0-.71.12,1.63,1.63,0,0,0-.58.4,1.9,1.9,0,0,0-.38.69,3.26,3.26,0,0,0-.14,1v3.41H89.15Z"/><path class="cls-2" d="M96.76,35.91H98v1h0a1.58,1.58,0,0,1,.33-.48,2,2,0,0,1,.46-.37,2.11,2.11,0,0,1,.55-.25,2.15,2.15,0,0,1,.61-.09,1.8,1.8,0,0,1,.54.08l-.05,1.36-.3-.07-.3,0a1.82,1.82,0,0,0-1.39.52A2.31,2.31,0,0,0,98,39.21v3.33H96.76Z"/><path class="cls-2" d="M102.51,39.69a1.62,1.62,0,0,0,.19.79,1.91,1.91,0,0,0,.48.61,2.18,2.18,0,0,0,.7.39,2.57,2.57,0,0,0,.82.14,1.8,1.8,0,0,0,1-.27,3.31,3.31,0,0,0,.78-.72l.93.72a3.37,3.37,0,0,1-2.87,1.36,3.45,3.45,0,0,1-1.39-.27,2.83,2.83,0,0,1-1.05-.73,3.26,3.26,0,0,1-.67-1.11,4.06,4.06,0,0,1-.23-1.37,3.64,3.64,0,0,1,.25-1.38,3.33,3.33,0,0,1,.7-1.11,3.14,3.14,0,0,1,1.06-.73,3.31,3.31,0,0,1,1.34-.27,3.09,3.09,0,0,1,1.46.31,2.85,2.85,0,0,1,1,.8,3.25,3.25,0,0,1,.55,1.12,4.58,4.58,0,0,1,.18,1.27v.45Zm3.89-1a2.64,2.64,0,0,0-.13-.77,1.68,1.68,0,0,0-.35-.61,1.65,1.65,0,0,0-.58-.41,2.23,2.23,0,0,0-.82-.14,2,2,0,0,0-1.46.63,1.94,1.94,0,0,0-.4.62,1.71,1.71,0,0,0-.15.68Z"/><path class="cls-2" d="M109.22,36.72a3.49,3.49,0,0,1,1.21-.74,4.08,4.08,0,0,1,1.37-.24,3.69,3.69,0,0,1,1.22.18,2.45,2.45,0,0,1,.84.49,2,2,0,0,1,.49.71,2.31,2.31,0,0,1,.16.83v3.39c0,.23,0,.45,0,.64s0,.39,0,.56h-1.09c0-.33,0-.67,0-1h0a2.43,2.43,0,0,1-1,.9,3,3,0,0,1-1.31.27,3.08,3.08,0,0,1-.86-.12,2.26,2.26,0,0,1-.72-.38,1.89,1.89,0,0,1-.48-.63,1.91,1.91,0,0,1-.18-.86,1.89,1.89,0,0,1,.28-1.07,2.11,2.11,0,0,1,.77-.71,3.67,3.67,0,0,1,1.13-.39,7.74,7.74,0,0,1,1.39-.12h.91v-.28a1.54,1.54,0,0,0-.1-.51,1.29,1.29,0,0,0-.29-.45,1.27,1.27,0,0,0-.48-.32,1.76,1.76,0,0,0-.68-.12,2.25,2.25,0,0,0-.62.07,2.35,2.35,0,0,0-.49.17,1.8,1.8,0,0,0-.4.25l-.34.26Zm3.48,2.63c-.29,0-.59,0-.9,0a3.48,3.48,0,0,0-.83.19,1.57,1.57,0,0,0-.62.39.9.9,0,0,0-.24.65.92.92,0,0,0,.38.82,1.79,1.79,0,0,0,1,.25,1.89,1.89,0,0,0,.86-.17,1.55,1.55,0,0,0,.57-.46,1.6,1.6,0,0,0,.32-.62,2.66,2.66,0,0,0,.1-.68v-.42Z"/><path class="cls-2" d="M119.78,37H118v3c0,.19,0,.37,0,.55a1.47,1.47,0,0,0,.11.49.79.79,0,0,0,.27.35.89.89,0,0,0,.54.14,2.3,2.3,0,0,0,.45,0,1.22,1.22,0,0,0,.43-.15v1.15a1.67,1.67,0,0,1-.57.17,4.66,4.66,0,0,1-.54.05,2.48,2.48,0,0,1-1.1-.2A1.37,1.37,0,0,1,117,42a1.84,1.84,0,0,1-.22-.72c0-.26,0-.53,0-.8V37h-1.43V35.91h1.43V34.05H118v1.86h1.77Z"/><path class="cls-2" d="M122.3,39.69a1.73,1.73,0,0,0,.18.79,1.94,1.94,0,0,0,.49.61,2.13,2.13,0,0,0,.69.39,2.58,2.58,0,0,0,.83.14,1.85,1.85,0,0,0,1-.27,3.75,3.75,0,0,0,.78-.72l.93.72a3.41,3.41,0,0,1-2.88,1.36,3.48,3.48,0,0,1-1.39-.27,3,3,0,0,1-1.05-.73,3.26,3.26,0,0,1-.67-1.11,4.06,4.06,0,0,1-.23-1.37,3.85,3.85,0,0,1,.25-1.38,3.5,3.5,0,0,1,.7-1.11A3.14,3.14,0,0,1,123,36a3.32,3.32,0,0,1,1.35-.27,3,3,0,0,1,1.45.31,2.76,2.76,0,0,1,1,.8,3.28,3.28,0,0,1,.56,1.12,5,5,0,0,1,.17,1.27v.45Zm3.88-1a2.64,2.64,0,0,0-.13-.77,1.64,1.64,0,0,0-.93-1,2.21,2.21,0,0,0-.81-.14,2.05,2.05,0,0,0-.83.17,2,2,0,0,0-1,1.08,1.69,1.69,0,0,0-.14.68Z"/><path class="cls-2" d="M129,35.91h1.23v1h0a1.79,1.79,0,0,1,.8-.86,2.65,2.65,0,0,1,1.33-.33,2.74,2.74,0,0,1,.9.15,1.91,1.91,0,0,1,.75.45,2.08,2.08,0,0,1,.51.79,3,3,0,0,1,.2,1.14v4.27h-1.24V38.62a2.34,2.34,0,0,0-.12-.79,1.41,1.41,0,0,0-.33-.53,1.1,1.1,0,0,0-.47-.29,1.71,1.71,0,0,0-.55-.09,2.09,2.09,0,0,0-.72.12,1.6,1.6,0,0,0-.57.4,1.77,1.77,0,0,0-.38.69,3,3,0,0,0-.14,1v3.41H129Z"/><path class="cls-2" d="M137.52,39.69a1.73,1.73,0,0,0,.18.79,2.07,2.07,0,0,0,1.19,1,2.52,2.52,0,0,0,.82.14,1.82,1.82,0,0,0,1-.27,3.75,3.75,0,0,0,.78-.72l.93.72a3.37,3.37,0,0,1-2.87,1.36,3.41,3.41,0,0,1-1.39-.27,3,3,0,0,1-1.06-.73,3.09,3.09,0,0,1-.66-1.11,3.83,3.83,0,0,1-.23-1.37,3.64,3.64,0,0,1,.25-1.38,3.33,3.33,0,0,1,.7-1.11,3,3,0,0,1,1.06-.73,3.31,3.31,0,0,1,1.34-.27,3.09,3.09,0,0,1,1.46.31,3,3,0,0,1,1,.8,3.25,3.25,0,0,1,.55,1.12,4.57,4.57,0,0,1,.17,1.27v.45Zm3.89-1a2.64,2.64,0,0,0-.13-.77,1.84,1.84,0,0,0-.35-.61,1.74,1.74,0,0,0-.58-.41,2.31,2.31,0,0,0-.82-.14,2.09,2.09,0,0,0-.83.17,2.15,2.15,0,0,0-1,1.08,1.88,1.88,0,0,0-.14.68Z"/><path class="cls-2" d="M150.7,42.54h-1.23v-.95h0a2.32,2.32,0,0,1-1,.83,3.1,3.1,0,0,1-1.28.29,3.35,3.35,0,0,1-1.37-.27,3,3,0,0,1-1-.74,3.29,3.29,0,0,1-.66-1.1,4.23,4.23,0,0,1,0-2.75,3.24,3.24,0,0,1,.66-1.11,3.06,3.06,0,0,1,1-.73,3.35,3.35,0,0,1,1.37-.27,3,3,0,0,1,1.31.3,2.17,2.17,0,0,1,.94.82h0V32h1.23Zm-3.36-1a2.18,2.18,0,0,0,.89-.18,2,2,0,0,0,.67-.48,2.14,2.14,0,0,0,.42-.72,3,3,0,0,0,0-1.87,2.14,2.14,0,0,0-.42-.72,2,2,0,0,0-1.56-.65,2.11,2.11,0,0,0-.89.17,2,2,0,0,0-.67.48,2,2,0,0,0-.43.72,3,3,0,0,0,0,1.87,2,2,0,0,0,.43.72,1.83,1.83,0,0,0,.67.48A2.11,2.11,0,0,0,147.34,41.54Z"/></g></svg>