<svg id="Common" xmlns="http://www.w3.org/2000/svg" viewBox="0 0 204.09 73.7"><defs><style>.cls-1{fill:#f36d44;}.cls-2{fill:#fff;}</style></defs><title>Rare</title><rect class="cls-1" x="31.18" y="25.43" width="141.73" height="22.68" rx="11.34"/><path class="cls-2" d="M89.34,32.63h3.41a4,4,0,0,1,1.54.26,2.6,2.6,0,0,1,.95.66,2.21,2.21,0,0,1,.48.89,3.78,3.78,0,0,1,.14,1,2.58,2.58,0,0,1-.16.92,2.62,2.62,0,0,1-.48.8,2.48,2.48,0,0,1-.75.6,2.72,2.72,0,0,1-1,.3l2.75,4.52H94.59l-2.47-4.36H90.66v4.36H89.34ZM90.66,37h1.72a4.77,4.77,0,0,0,.76-.06,2.21,2.21,0,0,0,.67-.23,1.33,1.33,0,0,0,.48-.49,1.75,1.75,0,0,0,.17-.82,1.78,1.78,0,0,0-.17-.82,1.23,1.23,0,0,0-.48-.48,2,2,0,0,0-.67-.23,4.77,4.77,0,0,0-.76-.06H90.66Z"/><path class="cls-2" d="M97.42,36.72A3.49,3.49,0,0,1,98.63,36a4.06,4.06,0,0,1,1.36-.24,3.71,3.71,0,0,1,1.23.18,2.45,2.45,0,0,1,.84.49,2,2,0,0,1,.49.71,2.31,2.31,0,0,1,.16.83v3.39c0,.23,0,.45,0,.64s0,.39,0,.56h-1.09c0-.33,0-.67,0-1h0a2.48,2.48,0,0,1-1,.91,3.08,3.08,0,0,1-1.3.26,3,3,0,0,1-.86-.12,2.26,2.26,0,0,1-.72-.38,1.89,1.89,0,0,1-.48-.63,1.91,1.91,0,0,1-.18-.86,1.89,1.89,0,0,1,.28-1.07,2.11,2.11,0,0,1,.77-.71,3.67,3.67,0,0,1,1.13-.39,7.74,7.74,0,0,1,1.39-.12h.91v-.28a1.54,1.54,0,0,0-.1-.51,1.29,1.29,0,0,0-.29-.45,1.35,1.35,0,0,0-.48-.32,1.76,1.76,0,0,0-.68-.12,2.25,2.25,0,0,0-.62.07,2.35,2.35,0,0,0-.49.17,1.8,1.8,0,0,0-.4.25l-.34.26Zm3.48,2.63c-.29,0-.59,0-.9,0a3.48,3.48,0,0,0-.83.19,1.57,1.57,0,0,0-.62.39.9.9,0,0,0-.24.65.92.92,0,0,0,.38.82,1.79,1.79,0,0,0,1,.25,1.91,1.91,0,0,0,.86-.17,1.55,1.55,0,0,0,.57-.46,1.6,1.6,0,0,0,.32-.62,2.66,2.66,0,0,0,.1-.68v-.42Z"/><path class="cls-2" d="M104.5,35.91h1.23v1h0a1.58,1.58,0,0,1,.33-.48,1.83,1.83,0,0,1,.46-.37,2,2,0,0,1,.55-.25,2.08,2.08,0,0,1,.6-.09,1.87,1.87,0,0,1,.55.08l0,1.36-.31-.07-.3,0a1.81,1.81,0,0,0-1.38.52,2.31,2.31,0,0,0-.48,1.61v3.33H104.5Z"/><path class="cls-2" d="M110.25,39.69a1.73,1.73,0,0,0,.18.79,2.07,2.07,0,0,0,1.19,1,2.52,2.52,0,0,0,.82.14,1.82,1.82,0,0,0,1-.27,3.75,3.75,0,0,0,.78-.72l.93.72a3.38,3.38,0,0,1-2.88,1.36,3.57,3.57,0,0,1-1.38-.26,3.06,3.06,0,0,1-1.72-1.85,3.83,3.83,0,0,1-.24-1.37,3.65,3.65,0,0,1,.26-1.38,3.33,3.33,0,0,1,.7-1.11A3,3,0,0,1,111,36a3.27,3.27,0,0,1,1.34-.27,3.12,3.12,0,0,1,1.46.31,3,3,0,0,1,1,.8,3.25,3.25,0,0,1,.55,1.12,5,5,0,0,1,.17,1.27v.45Zm3.89-1a3,3,0,0,0-.13-.77,1.84,1.84,0,0,0-.35-.61,1.74,1.74,0,0,0-.58-.41,2.31,2.31,0,0,0-.82-.14,2.05,2.05,0,0,0-.83.17,2.15,2.15,0,0,0-1,1.08,1.88,1.88,0,0,0-.14.68Z"/></svg>