<svg xmlns="http://www.w3.org/2000/svg" xmlns:xlink="http://www.w3.org/1999/xlink" viewBox="0 0 204.09 73.7"><defs><style>.cls-1{fill:url(#radial-gradient);}.cls-2{fill:url(#radial-gradient-2);}.cls-3{font-size:34px;fill:#231f20;font-family:Avenir-Black, Avenir;font-weight:800;}.cls-4{letter-spacing:-0.02em;}.cls-5{letter-spacing:0em;}.cls-6{fill:none;}.cls-7{mask:url(#mask);}.cls-8{fill:#fff;}.cls-9{mask:url(#mask-2);}.cls-10{fill:url(#radial-gradient-3);}.cls-11{fill:url(#radial-gradient-4);}.cls-12{fill:url(#radial-gradient-5);}.cls-13{fill:url(#radial-gradient-6);}</style><radialGradient id="radial-gradient" cx="102.23" cy="37.02" r="11.37" gradientUnits="userSpaceOnUse"><stop offset="0.66" stop-color="#fff"/><stop offset="0.66" stop-color="#f8f8f8"/><stop offset="0.7" stop-color="#bfbfbf"/><stop offset="0.75" stop-color="#8c8c8c"/><stop offset="0.79" stop-color="#616161"/><stop offset="0.83" stop-color="#3e3e3e"/><stop offset="0.87" stop-color="#232323"/><stop offset="0.91" stop-color="#0f0f0f"/><stop offset="0.96" stop-color="#040404"/><stop offset="1"/></radialGradient><radialGradient id="radial-gradient-2" cx="102.09" cy="37.04" r="8.19" gradientUnits="userSpaceOnUse"><stop offset="0.95" stop-color="#fff"/><stop offset="0.95" stop-color="#f8f8f8"/><stop offset="0.95" stop-color="#c4c4c4"/><stop offset="0.95" stop-color="#969696"/><stop offset="0.96" stop-color="#6d6d6d"/><stop offset="0.96" stop-color="#4b4b4b"/><stop offset="0.97" stop-color="#303030"/><stop offset="0.98" stop-color="#1b1b1b"/><stop offset="0.98" stop-color="#0c0c0c"/><stop offset="0.99" stop-color="#030303"/><stop offset="1"/></radialGradient><mask id="mask" x="90.86" y="25.6" width="22.74" height="22.8" maskUnits="userSpaceOnUse"><path class="cls-1" d="M113.61,37a11.38,11.38,0,1,1-11.38-11.37A11.38,11.38,0,0,1,113.61,37Z"/></mask><mask id="mask-2" x="93.68" y="28.56" width="16.84" height="16.84" maskUnits="userSpaceOnUse"><path class="cls-2" d="M110.28,37a8.19,8.19,0,1,1-8.19-8.19A8.18,8.18,0,0,1,110.28,37Z"/></mask><radialGradient id="radial-gradient-3" cx="99.85" cy="35.71" r="5.15" gradientUnits="userSpaceOnUse"><stop offset="0" stop-color="#bae0f7"/><stop offset="1" stop-color="#0e79bf"/></radialGradient><radialGradient id="radial-gradient-4" cx="99.56" cy="35.78" r="6.31" gradientUnits="userSpaceOnUse"><stop offset="0" stop-color="#b3d336"/><stop offset="0.96" stop-color="#019e4a"/></radialGradient><radialGradient id="radial-gradient-5" cx="101.16" cy="35.37" r="8.02" xlink:href="#radial-gradient-4"/><radialGradient id="radial-gradient-6" cx="101.75" cy="31.95" r="10.6" xlink:href="#radial-gradient-4"/></defs><title>SWOC3</title><g id="Common"><text class="cls-3" transform="translate(-270.07 48.96) scale(0.98 1)">#SeeWhatOtherCan<tspan class="cls-4" x="320.34" y="0">’</tspan><tspan class="cls-5" x="329.79" y="0">t</tspan></text><rect class="cls-6" x="87.79" y="23.3" width="90.87" height="27.09"/><g class="cls-7"><path class="cls-8" d="M113.57,36.93A11.34,11.34,0,1,1,102.23,25.6,11.34,11.34,0,0,1,113.57,36.93Z"/></g><g class="cls-9"><path class="cls-8" d="M110.51,37a8.42,8.42,0,1,1-8.42-8.42A8.42,8.42,0,0,1,110.51,37Z"/></g><path class="cls-10" d="M109.43,37.06a7.26,7.26,0,1,1-7.26-7.26A7.25,7.25,0,0,1,109.43,37.06Z"/><path class="cls-11" d="M96,37.7c-.33-1.11,0-2.15.88-2.23s1.37-1.18,1.89-1.9c1.07-1.48,2.71-1.23,2.63-2-.24-1.09-1.49-.28-2.3-.25a14.26,14.26,0,0,0-1.63.18,7.21,7.21,0,0,0-2.56,5.3c.43.45,1,1.47,1.64,2.06l.28-.1A5.69,5.69,0,0,1,96,37.7Z"/><path class="cls-12" d="M101,41.72c.38-1,.6-1.44.08-2.47-1.14-.32-1.48-.42-2.63-.66a1.87,1.87,0,0,0-1.3.11l-.31.09-.28.1a.79.79,0,0,0-.5.69A1.49,1.49,0,0,0,97.21,41c.72.2.78,0,1.16.47a5.21,5.21,0,0,1,.44,1.45,5.5,5.5,0,0,0,.3.72,6.91,6.91,0,0,0,1.63.53A23.41,23.41,0,0,1,101,41.72Z"/><path class="cls-13" d="M109.42,36.73a7.24,7.24,0,0,0-2.38-5,1.32,1.32,0,0,1-.53,0c-1.5-.28-1.86.61-2.3,1.23s-1.51.62-1.89,1.16,0,1.25-.25,1.72a1.52,1.52,0,0,0,.08,1.07c.46.66,1.21.3,1.78.53s.77,1.1,1.34,1.68-.73,1.5.34,3.64a1.43,1.43,0,0,0,.39.51,7.22,7.22,0,0,0,1.88-1.69c.16-1.08-.2-1.43.25-2.41A16.35,16.35,0,0,1,109.42,36.73Z"/><path d="M99.84,35.44a13.48,13.48,0,0,1,4.38-1.1,9.51,9.51,0,0,0-1.56-2.59,11.6,11.6,0,0,0-3.6.9A24.22,24.22,0,0,0,99.84,35.44Zm5.76,3a9.55,9.55,0,0,0-4.22.89A26.17,26.17,0,0,0,103,42a8.34,8.34,0,0,1,1.61-.44,10,10,0,0,1,1.5-.13A14.59,14.59,0,0,0,105.6,38.48Zm-4.53.27a9.84,9.84,0,0,1,4.38-.87,28.33,28.33,0,0,0-1-3A11.28,11.28,0,0,0,100,36,25.74,25.74,0,0,0,101.07,38.75Zm5.25-6.89a13.78,13.78,0,0,0-3-.19,11.23,11.23,0,0,1,1.49,2.66,12.29,12.29,0,0,1,3.34.62A9.58,9.58,0,0,0,106.32,31.86Zm2.6,6.74a10.59,10.59,0,0,0-.54-3.07,9.54,9.54,0,0,0-3.3-.62,20.45,20.45,0,0,1,.93,3A11.47,11.47,0,0,1,108.92,38.6ZM108.16,32a8.63,8.63,0,0,0-6.9-2.52A9.75,9.75,0,0,1,103,31.16a11.4,11.4,0,0,1,2.92.22,2.48,2.48,0,0,1-.26-.31c-.08-.18.12-.22.28-.12a3.18,3.18,0,0,1,.63.48A10.18,10.18,0,0,1,108.16,32Zm1.44,7a.37.37,0,0,1-.34.21,13,13,0,0,1-.09,1.64,9.88,9.88,0,0,0,.5-1.34l.12-.45a7.3,7.3,0,0,0,.15-3.49,5.58,5.58,0,0,0-1.33-3A11.76,11.76,0,0,0,107,32a10.46,10.46,0,0,1,1.68,3.1,7.47,7.47,0,0,1,.91.54c0,.07,0,.18-.12.18a5.18,5.18,0,0,1-.63-.19,12.54,12.54,0,0,1,.39,3.11S109.63,38.93,109.6,39.05Zm-1.1,2.87a2.15,2.15,0,0,0,.38-.53,18.05,18.05,0,0,0,.05-2.27,10.37,10.37,0,0,0-2.75-.6,16.44,16.44,0,0,1,.44,3A10.08,10.08,0,0,1,108.5,41.92Zm-1.92,1.71a6.76,6.76,0,0,0,1.72-1.44,7.13,7.13,0,0,0-1.67-.19S106.62,43,106.58,43.63Zm-1.78.84a11.34,11.34,0,0,0,1.32-.59,17.18,17.18,0,0,0,0-1.89,8.61,8.61,0,0,0-2.8.55A13.45,13.45,0,0,0,104.8,44.47Zm-3.92-.57a13.71,13.71,0,0,0,1.21.88,10.32,10.32,0,0,0,2-.15c-.32-.36-1.12-1.49-1.36-1.87A8.41,8.41,0,0,0,100.88,43.9Zm-2.64-2.69a17.33,17.33,0,0,0,2.24,2.34,11.49,11.49,0,0,1,2-1.27,27.44,27.44,0,0,1-1.59-2.67A9.82,9.82,0,0,0,98.24,41.21Zm-1.63-3.16a10.75,10.75,0,0,0,1.26,2.67A14.15,14.15,0,0,1,100.54,39c-.3-.65-.73-1.84-1-2.74A16.18,16.18,0,0,0,96.61,38.05Zm-.94-3.35a16.25,16.25,0,0,0,.68,2.73,20.29,20.29,0,0,1,3-1.78,20.8,20.8,0,0,1-.66-2.84A12.07,12.07,0,0,0,95.67,34.7Zm-.14-2.28a8.54,8.54,0,0,0,.08,1.63,13.17,13.17,0,0,1,3-1.82,23.67,23.67,0,0,1-.24-2.45,9.56,9.56,0,0,0-2.85,2.74m3.22-3.38a8.26,8.26,0,0,1,4.38-.69c.17,0,.16.18,0,.18h-.22a10.41,10.41,0,0,0-4.14,1,15.58,15.58,0,0,0,.23,2.5,13.45,13.45,0,0,1,3.3-.87A12.41,12.41,0,0,0,100.76,30a.38.38,0,0,1-.15-.34.3.3,0,0,1,.39-.28,6.51,6.51,0,0,1,1.6-.16,7.84,7.84,0,0,1,7,3.62c2.74,4.32,0,10.29-3.58,11.88a8.5,8.5,0,0,1-5.27.63,7.93,7.93,0,0,1-5.94-4c-1.9-3.07-.83-6.65-.57-7.4A8.69,8.69,0,0,1,98.73,29.14Zm-3.65,5.33L95,33.36a5.77,5.77,0,0,0-.64,2.06A7.2,7.2,0,0,1,95.08,34.47Zm5,9.43a15.82,15.82,0,0,1-2.31-2.32c-.2.11-.41.42-.69.47a1.12,1.12,0,0,1-.44,0c-.07,0,0-.18.1-.28a3.38,3.38,0,0,1,.63-.64A11.25,11.25,0,0,1,96,38.44a6.62,6.62,0,0,0-.64.47.35.35,0,0,1-.37,0,.37.37,0,0,1,.07-.61l.72-.51a14.86,14.86,0,0,1-.64-2.67,5.91,5.91,0,0,1-.58.44.45.45,0,0,1-.22,0,10.31,10.31,0,0,0,.39,3.89,7.58,7.58,0,0,0,4.88,5A5,5,0,0,1,100.07,43.9Zm1.27.86c-.24-.14-.54-.35-.82-.54a2.33,2.33,0,0,0-.31.38A5.81,5.81,0,0,0,101.34,44.76Z"/><path d="M120.18,39.27a3,3,0,0,1-2.28,1A2.43,2.43,0,0,1,115.38,38h7.15v-.65c0-3.26-1.78-5.09-4.4-5.09a4.92,4.92,0,1,0,3.52,8.44Zm-2.38-5.22a2.16,2.16,0,0,1,2.39,2.23h-4.81A2.34,2.34,0,0,1,117.8,34.05Z"/><path d="M125.79,35.17c0-.71.75-1,1.37-1a2.12,2.12,0,0,1,1.83.95l1.49-1.49a4.11,4.11,0,0,0-3.26-1.33c-1.89,0-3.77.93-3.77,3,0,3.58,5.06,2,5.06,4,0,.75-.88,1.08-1.56,1.08a2.85,2.85,0,0,1-2.22-1.15l-1.52,1.51a4.6,4.6,0,0,0,3.6,1.39c1.91,0,4-.78,4-3C130.85,35.48,125.79,36.84,125.79,35.17Z"/><path d="M140.25,27.81a1.5,1.5,0,1,1-1.53,1.49A1.51,1.51,0,0,1,140.25,27.81Z"/><rect x="139.1" y="32.53" width="2.34" height="9.37"/><path d="M137.91,32.43a2.88,2.88,0,0,0-.83-.13A3,3,0,0,0,134.31,34h0V32.53h-2.34V41.9h2.34v-5a2.36,2.36,0,0,1,2.52-2.36,4.66,4.66,0,0,1,1,.15Z"/><path d="M149,32.65a1.81,1.81,0,0,1,1.94,1.91A1.85,1.85,0,0,1,149,36.47a1.91,1.91,0,1,1,0-3.82Zm0,3.23a1.32,1.32,0,1,0-1.25-1.34A1.24,1.24,0,0,0,149,35.88Z"/><path d="M151.84,34.44h-.5v-.52h.5v-.35c0-.68.16-1.13.92-1.13a1.67,1.67,0,0,1,.39,0l0,.52a1.17,1.17,0,0,0-.26,0c-.34,0-.39.24-.39.51v.45H153v.52h-.57v1.94h-.62Z"/><path d="M153.85,34.44h-.51v-.52h.51v-.35c0-.68.15-1.13.91-1.13a1.61,1.61,0,0,1,.39,0l0,.52a1.09,1.09,0,0,0-.25,0c-.35,0-.4.24-.4.51v.45H155v.52h-.57v1.94h-.61Zm1.89-1.73a.37.37,0,1,1-.39.37A.38.38,0,0,1,155.74,32.71Zm-.31,1.21h.62v2.46h-.62Z"/><path d="M158.4,34.65a.72.72,0,0,0-.47-.24.74.74,0,0,0,0,1.47.59.59,0,0,0,.48-.23l.41.44a1.35,1.35,0,0,1-.89.35,1.3,1.3,0,1,1,0-2.59,1.2,1.2,0,0,1,.89.38Z"/><path d="M159.59,32.71a.37.37,0,1,1-.39.37A.38.38,0,0,1,159.59,32.71Zm-.31,1.21h.62v2.46h-.62Z"/><path d="M162.2,36h0a.87.87,0,0,1-.79.4.81.81,0,0,1-.9-.74c0-.8.94-.86,1.55-.86h.16v-.06c0-.31-.24-.46-.57-.46a1,1,0,0,0-.65.25l-.33-.32a1.46,1.46,0,0,1,1-.4c1.05,0,1.05.76,1.05,1.11v1.42h-.55Zm0-.77H162c-.34,0-.92,0-.92.38s.23.33.43.33c.42,0,.62-.22.62-.57Z"/><path d="M163.4,32.5H164v3.88h-.62Z"/><path d="M147.38,38.27h1.43a1.73,1.73,0,0,1,1.85,1.81,1.83,1.83,0,0,1-1.92,1.82h-1.36Zm1.13,3c.81,0,1.47-.34,1.47-1.23s-.57-1.23-1.36-1.23H148v2.46Z"/><path d="M151.59,38.23a.37.37,0,1,1,0,.74.37.37,0,0,1-.39-.37A.38.38,0,0,1,151.59,38.23Zm-.3,1.21h.61V41.9h-.61Z"/><path d="M154,40.12a.57.57,0,0,0-.48-.25c-.16,0-.36.07-.36.26,0,.44,1.33.08,1.33,1,0,.58-.56.79-1.06.79a1.21,1.21,0,0,1-1-.38l.41-.38a.76.76,0,0,0,.58.3c.18,0,.41-.09.41-.28,0-.51-1.33-.11-1.33-1,0-.55.5-.79,1-.79a1.07,1.07,0,0,1,.88.37Z"/><path d="M154.81,40v-.52h.51v-.72h.61v.72h.68V40h-.68V41c0,.24.08.4.35.4a.62.62,0,0,0,.33-.08v.52a1.33,1.33,0,0,1-.49.08c-.65,0-.8-.29-.8-.87V40Z"/><path d="M157.18,39.44h.62v.39h0a.76.76,0,0,1,.73-.45.83.83,0,0,1,.22,0V40a1,1,0,0,0-.3,0,.62.62,0,0,0-.66.62V41.9h-.62Z"/><path d="M159.55,38.23a.37.37,0,1,1,0,.74.37.37,0,0,1-.39-.37A.38.38,0,0,1,159.55,38.23Zm-.31,1.21h.62V41.9h-.62Z"/><path d="M160.63,38h.61v1.73h0a1,1,0,0,1,.83-.37,1.2,1.2,0,0,1,1.19,1.29A1.19,1.19,0,0,1,162.07,42a.94.94,0,0,1-.85-.43h0v.37h-.58Zm1.31,1.91a.74.74,0,0,0,0,1.48.74.74,0,0,0,0-1.48Z"/><path d="M166,41.9h-.58v-.4h0a.76.76,0,0,1-.75.46.86.86,0,0,1-.9-1V39.44h.61v1.24c0,.27,0,.73.46.73a.55.55,0,0,0,.56-.63V39.44H166Z"/><path d="M166.47,40v-.52H167v-.72h.61v.72h.68V40h-.68V41c0,.24.08.4.35.4a.6.6,0,0,0,.33-.08v.52a1.33,1.33,0,0,1-.49.08c-.65,0-.8-.29-.8-.87V40Z"/><path d="M170,39.38a1.29,1.29,0,1,1-1.34,1.29A1.27,1.27,0,0,1,170,39.38Zm0,2a.74.74,0,1,0-.73-.74A.71.71,0,0,0,170,41.41Z"/><path d="M171.89,39.44h.62v.39h0a.76.76,0,0,1,.73-.45l.22,0V40a1.11,1.11,0,0,0-.3,0,.62.62,0,0,0-.66.62V41.9h-.62Z"/></g></svg>