<svg id="Common" xmlns="http://www.w3.org/2000/svg" viewBox="0 0 204.09 73.7"><defs><style>.cls-1{fill:#231f20;}</style></defs><title>SWOC2</title><path class="cls-1" d="M8.93,46.11a8,8,0,0,1-3,2.41,8.87,8.87,0,0,1-3.79.85,10,10,0,0,1-3.51-.61A8.41,8.41,0,0,1-4.25,47a8.09,8.09,0,0,1-1.91-2.74,8.72,8.72,0,0,1-.7-3.57,8.78,8.78,0,0,1,.7-3.57,8.19,8.19,0,0,1,1.91-2.74,8.41,8.41,0,0,1,2.86-1.75A10.2,10.2,0,0,1,2.12,32a8,8,0,0,1,3.14.61,6.53,6.53,0,0,1,2.39,1.75,8.09,8.09,0,0,1,1.52,2.74A11.44,11.44,0,0,1,9.7,40.7v1.6H-1.87A4.1,4.1,0,0,0-.58,44.63a3.62,3.62,0,0,0,2.46.86A3.63,3.63,0,0,0,4,44.93a5.47,5.47,0,0,0,1.48-1.44ZM4.71,38.83a3,3,0,0,0-.83-2.21,2.94,2.94,0,0,0-2.23-.92A3.69,3.69,0,0,0,.19,36a3.94,3.94,0,0,0-1.08.7,3.19,3.19,0,0,0-1,2.16Z"/><path class="cls-1" d="M10.89,24.89h5.66L20.3,40.33h.07l4.92-15.44h4.82L35,40.74h.07l4-15.85h5.26L37.39,49H32.77L27.59,32.3h-.07L22.33,49H17.88Z"/><path class="cls-1" d="M51,23.26V34.68H51a3.28,3.28,0,0,1,.56-1,4.45,4.45,0,0,1,1-.85,5.11,5.11,0,0,1,1.33-.61A5.46,5.46,0,0,1,55.55,32a6.72,6.72,0,0,1,3.06.6,4.43,4.43,0,0,1,1.81,1.64,6.93,6.93,0,0,1,.88,2.49,18.68,18.68,0,0,1,.23,3.09V49h-5V40.87c0-.48,0-1,0-1.48A5.19,5.19,0,0,0,56.2,38a2.48,2.48,0,0,0-.77-1A2.29,2.29,0,0,0,54,36.52a3,3,0,0,0-1.56.36,2.31,2.31,0,0,0-.91.95,3.76,3.76,0,0,0-.42,1.34,11.3,11.3,0,0,0-.1,1.57V49H46V23.26Z"/><path class="cls-1" d="M75.2,46.89h-.07a4.68,4.68,0,0,1-2.21,1.9,7.38,7.38,0,0,1-2.91.58,7.57,7.57,0,0,1-2.18-.32,5.49,5.49,0,0,1-1.84-1,4.65,4.65,0,0,1-1.27-1.6,5,5,0,0,1-.46-2.21,5.18,5.18,0,0,1,.51-2.41,4.73,4.73,0,0,1,1.4-1.64,7,7,0,0,1,2-1,14,14,0,0,1,2.35-.52A19.59,19.59,0,0,1,73,38.49l2.25,0a2.68,2.68,0,0,0-1-2.16A3.38,3.38,0,0,0,72,35.5a4.73,4.73,0,0,0-2.25.53A6.06,6.06,0,0,0,68,37.47l-2.66-2.79a9.3,9.3,0,0,1,3.26-2A11.41,11.41,0,0,1,72.4,32a10,10,0,0,1,3.61.56,5.32,5.32,0,0,1,2.26,1.65,6.39,6.39,0,0,1,1.18,2.67,17.92,17.92,0,0,1,.34,3.65V49H75.2ZM74,41.72c-.38,0-.85,0-1.42.05a7.24,7.24,0,0,0-1.62.29,3.6,3.6,0,0,0-1.33.71,1.66,1.66,0,0,0-.55,1.33,1.46,1.46,0,0,0,.76,1.36,3.09,3.09,0,0,0,1.6.44,5.11,5.11,0,0,0,1.41-.2A4.24,4.24,0,0,0,74,45.12a2.77,2.77,0,0,0,.85-.95,2.82,2.82,0,0,0,.32-1.36V41.72Z"/><path class="cls-1" d="M93.92,36.52H89.53V42a11.84,11.84,0,0,0,.06,1.24,2.83,2.83,0,0,0,.3,1,1.59,1.59,0,0,0,.72.63,3.24,3.24,0,0,0,1.28.22,8.2,8.2,0,0,0,1-.09,1.76,1.76,0,0,0,1-.39v4.25a7.79,7.79,0,0,1-1.73.41,15.2,15.2,0,0,1-1.76.1,9.43,9.43,0,0,1-2.33-.27,5.15,5.15,0,0,1-1.86-.87A3.91,3.91,0,0,1,85,46.68a5.35,5.35,0,0,1-.45-2.31V36.52H81.35V32.44h3.19v-4.9h5v4.9h4.39Z"/><path class="cls-1" d="M95.81,36.93a13.89,13.89,0,0,1,1-5.24,11.35,11.35,0,0,1,6.67-6.53,15.13,15.13,0,0,1,10.17,0,11.42,11.42,0,0,1,6.67,6.53,13.89,13.89,0,0,1,.94,5.24,13.88,13.88,0,0,1-.94,5.23,11.35,11.35,0,0,1-6.67,6.53,15.13,15.13,0,0,1-10.17,0,11.27,11.27,0,0,1-6.67-6.53A13.88,13.88,0,0,1,95.81,36.93Zm5.39,0a9.1,9.1,0,0,0,.51,3.11,7.4,7.4,0,0,0,1.48,2.45,6.82,6.82,0,0,0,2.31,1.61,8.1,8.1,0,0,0,6,0,6.63,6.63,0,0,0,2.31-1.61A7.08,7.08,0,0,0,115.31,40a9.53,9.53,0,0,0,0-6.21,7,7,0,0,0-1.48-2.46,6.79,6.79,0,0,0-2.31-1.62,8.1,8.1,0,0,0-6,0,7,7,0,0,0-2.31,1.62,7.25,7.25,0,0,0-1.48,2.46A9.16,9.16,0,0,0,101.2,36.93Z"/><path class="cls-1" d="M135.11,36.52h-4.39V42a9.54,9.54,0,0,0,.07,1.24,2.46,2.46,0,0,0,.3,1,1.52,1.52,0,0,0,.71.63,3.24,3.24,0,0,0,1.28.22,7.93,7.93,0,0,0,1-.09,1.73,1.73,0,0,0,1-.39v4.25a7.66,7.66,0,0,1-1.73.41,15.08,15.08,0,0,1-1.76.1,9.49,9.49,0,0,1-2.33-.27,5.15,5.15,0,0,1-1.86-.87,4,4,0,0,1-1.25-1.55,5.5,5.5,0,0,1-.44-2.31V36.52h-3.2V32.44h3.2v-4.9h5v4.9h4.39Z"/><path class="cls-1" d="M142.63,23.26V34.68h.06a3.11,3.11,0,0,1,.57-1,4.18,4.18,0,0,1,1-.85,5.26,5.26,0,0,1,1.33-.61,5.55,5.55,0,0,1,1.66-.24,6.66,6.66,0,0,1,3.06.6,4.45,4.45,0,0,1,1.82,1.64,6.93,6.93,0,0,1,.88,2.49,19.83,19.83,0,0,1,.23,3.09V49h-5V40.87c0-.48,0-1-.05-1.48a4.54,4.54,0,0,0-.3-1.41,2.38,2.38,0,0,0-.76-1,2.31,2.31,0,0,0-1.48-.41,3,3,0,0,0-1.56.36,2.34,2.34,0,0,0-.92.95,3.76,3.76,0,0,0-.41,1.34,11.3,11.3,0,0,0-.1,1.57V49h-5V23.26Z"/><path class="cls-1" d="M172,46.11a8.06,8.06,0,0,1-3,2.41,8.84,8.84,0,0,1-3.79.85,10,10,0,0,1-3.51-.61A8.51,8.51,0,0,1,158.83,47a8.24,8.24,0,0,1-1.91-2.74,9.45,9.45,0,0,1,0-7.14,8.34,8.34,0,0,1,1.91-2.74,8.51,8.51,0,0,1,2.86-1.75A10.2,10.2,0,0,1,165.2,32a8,8,0,0,1,3.14.61,6.57,6.57,0,0,1,2.4,1.75,8.08,8.08,0,0,1,1.51,2.74,11.44,11.44,0,0,1,.53,3.57v1.6H161.21a4.06,4.06,0,0,0,1.3,2.33,3.59,3.59,0,0,0,2.46.86,3.65,3.65,0,0,0,2.08-.56,5.61,5.61,0,0,0,1.48-1.44Zm-4.23-7.28a3,3,0,0,0-3-3.13,3.71,3.71,0,0,0-1.47.27,3.94,3.94,0,0,0-1.08.7,3.13,3.13,0,0,0-.7,1,3.34,3.34,0,0,0-.28,1.17Z"/><path class="cls-1" d="M175.81,32.44h5v2.65h.07a6.22,6.22,0,0,1,1.9-2.29,4.71,4.71,0,0,1,2.76-.77l.86,0a4.75,4.75,0,0,1,.8.14v4.66a8.46,8.46,0,0,0-1.05-.26,7.41,7.41,0,0,0-1.08-.08,5.07,5.07,0,0,0-2.26.41,3,3,0,0,0-1.28,1.14,4.36,4.36,0,0,0-.58,1.75,17,17,0,0,0-.14,2.24V49h-5Z"/><path class="cls-1" d="M205.37,31.15a5.09,5.09,0,0,0-1.88-1.47,6.16,6.16,0,0,0-2.58-.51,6.43,6.43,0,0,0-2.71.58A6.6,6.6,0,0,0,196,31.37a7.48,7.48,0,0,0-1.43,2.46,9.53,9.53,0,0,0,0,6.21A7.78,7.78,0,0,0,196,42.49a6.35,6.35,0,0,0,2.11,1.61,5.93,5.93,0,0,0,2.61.58,5.78,5.78,0,0,0,2.83-.68,5.62,5.62,0,0,0,2-1.91l4.32,3.3a9,9,0,0,1-3.79,3.16,11.34,11.34,0,0,1-4.72,1,14.21,14.21,0,0,1-5.09-.88,11.6,11.6,0,0,1-4-2.53,11.45,11.45,0,0,1-2.64-4,13.69,13.69,0,0,1-.95-5.23,13.7,13.7,0,0,1,.95-5.24,11.5,11.5,0,0,1,2.64-4,11.62,11.62,0,0,1,4-2.54,14.21,14.21,0,0,1,5.09-.88,11.74,11.74,0,0,1,2.08.19,10.89,10.89,0,0,1,2.13.59,9.86,9.86,0,0,1,2,1.09,8.22,8.22,0,0,1,1.73,1.66Z"/></svg>