<svg xmlns="http://www.w3.org/2000/svg" viewBox="0 0 204.09 73.7"><defs><style>.cls-1{fill:#b2abd2;}.cls-2{fill:#fff;}</style></defs><title>Threatened</title><g id="Status"><rect class="cls-1" x="31.18" y="19.76" width="141.73" height="34.02" rx="11.34"/><path class="cls-2" d="M69.68,33.89H66.56V32.63h7.56v1.26H71v8.65H69.68Z"/><path class="cls-2" d="M75.2,32h1.23v5h0a1.77,1.77,0,0,1,.81-.86,2.59,2.59,0,0,1,1.32-.33,2.7,2.7,0,0,1,.9.15,1.91,1.91,0,0,1,.75.45,2.22,2.22,0,0,1,.52.79A3,3,0,0,1,81,38.27v4.27H79.72V38.62a2.11,2.11,0,0,0-.13-.79,1.53,1.53,0,0,0-.32-.53,1.19,1.19,0,0,0-.48-.29,1.71,1.71,0,0,0-.55-.09,2,2,0,0,0-.71.12,1.63,1.63,0,0,0-.58.4,1.9,1.9,0,0,0-.38.69,3.26,3.26,0,0,0-.14,1v3.41H75.2Z"/><path class="cls-2" d="M82.81,35.91H84v1h0a1.58,1.58,0,0,1,.33-.48,2,2,0,0,1,.46-.37A2.19,2.19,0,0,1,86,35.74a1.8,1.8,0,0,1,.54.08l0,1.36-.3-.07-.3,0a1.82,1.82,0,0,0-1.39.52A2.31,2.31,0,0,0,84,39.21v3.33H82.81Z"/><path class="cls-2" d="M88.56,39.69a1.62,1.62,0,0,0,.19.79,1.91,1.91,0,0,0,.48.61,2.18,2.18,0,0,0,.7.39,2.57,2.57,0,0,0,.82.14,1.8,1.8,0,0,0,1-.27,3.75,3.75,0,0,0,.78-.72l.93.72a3.37,3.37,0,0,1-2.87,1.36,3.45,3.45,0,0,1-1.39-.27,3,3,0,0,1-1.06-.73,3.41,3.41,0,0,1-.66-1.11,3.83,3.83,0,0,1-.23-1.37,3.64,3.64,0,0,1,.25-1.38,3.33,3.33,0,0,1,.7-1.11A3,3,0,0,1,89.26,36a3.31,3.31,0,0,1,1.34-.27,3.09,3.09,0,0,1,1.46.31,2.85,2.85,0,0,1,1,.8A3.25,3.25,0,0,1,93.59,38a4.57,4.57,0,0,1,.17,1.27v.45Zm3.89-1a2.64,2.64,0,0,0-.13-.77A1.68,1.68,0,0,0,92,37.3a1.65,1.65,0,0,0-.58-.41,2.27,2.27,0,0,0-.82-.14,2,2,0,0,0-.82.17,1.91,1.91,0,0,0-.64.46,1.94,1.94,0,0,0-.4.62,1.71,1.71,0,0,0-.15.68Z"/><path class="cls-2" d="M95.27,36.72a3.55,3.55,0,0,1,1.2-.74,4.16,4.16,0,0,1,1.37-.24,3.71,3.71,0,0,1,1.23.18,2.45,2.45,0,0,1,.84.49,2,2,0,0,1,.49.71,2.31,2.31,0,0,1,.15.83v3.39c0,.23,0,.45,0,.64s0,.39,0,.56h-1.1c0-.33,0-.67,0-1h0a2.38,2.38,0,0,1-1,.9,2.93,2.93,0,0,1-1.3.27,3,3,0,0,1-.86-.12,2.26,2.26,0,0,1-.72-.38,1.76,1.76,0,0,1-.48-.63,1.91,1.91,0,0,1-.18-.86,1.89,1.89,0,0,1,.28-1.07,2.11,2.11,0,0,1,.77-.71,3.67,3.67,0,0,1,1.13-.39,7.74,7.74,0,0,1,1.39-.12h.9v-.28a1.52,1.52,0,0,0-.09-.51,1.44,1.44,0,0,0-.29-.45,1.35,1.35,0,0,0-.48-.32,1.76,1.76,0,0,0-.68-.12,2.38,2.38,0,0,0-.63.07,2.26,2.26,0,0,0-.48.17,1.8,1.8,0,0,0-.4.25L96,37.5Zm3.48,2.63c-.29,0-.59,0-.9,0a3.48,3.48,0,0,0-.83.19,1.5,1.5,0,0,0-.62.39.9.9,0,0,0-.24.65.92.92,0,0,0,.38.82,1.79,1.79,0,0,0,1,.25,1.91,1.91,0,0,0,.86-.17,1.55,1.55,0,0,0,.57-.46,1.74,1.74,0,0,0,.32-.62,2.65,2.65,0,0,0,.09-.68v-.42Z"/><path class="cls-2" d="M105.83,37h-1.77v3c0,.19,0,.37,0,.55a1.47,1.47,0,0,0,.11.49.79.79,0,0,0,.27.35.89.89,0,0,0,.54.14,2.3,2.3,0,0,0,.45,0,1.22,1.22,0,0,0,.43-.15v1.15a1.67,1.67,0,0,1-.57.17,4.66,4.66,0,0,1-.54.05,2.48,2.48,0,0,1-1.1-.2,1.37,1.37,0,0,1-.58-.53,1.69,1.69,0,0,1-.22-.72c0-.26,0-.53,0-.8V37H101.4V35.91h1.43V34.05h1.23v1.86h1.77Z"/><path class="cls-2" d="M108.34,39.69a1.74,1.74,0,0,0,.19.79,1.81,1.81,0,0,0,.49.61,2.13,2.13,0,0,0,.69.39,2.58,2.58,0,0,0,.83.14,1.79,1.79,0,0,0,1-.27,3.56,3.56,0,0,0,.79-.72l.93.72a3.41,3.41,0,0,1-2.88,1.36,3.48,3.48,0,0,1-1.39-.27,2.92,2.92,0,0,1-1-.73,3.26,3.26,0,0,1-.67-1.11,4.06,4.06,0,0,1-.23-1.37,3.64,3.64,0,0,1,.25-1.38,3.5,3.5,0,0,1,.7-1.11A3.14,3.14,0,0,1,109,36a3.31,3.31,0,0,1,1.34-.27,3.06,3.06,0,0,1,1.46.31,2.76,2.76,0,0,1,1,.8,3.28,3.28,0,0,1,.56,1.12,5,5,0,0,1,.17,1.27v.45Zm3.89-1a2.64,2.64,0,0,0-.13-.77,1.55,1.55,0,0,0-.35-.61,1.65,1.65,0,0,0-.58-.41,2.21,2.21,0,0,0-.81-.14,2.05,2.05,0,0,0-.83.17,2.14,2.14,0,0,0-.64.46,1.94,1.94,0,0,0-.4.62,1.71,1.71,0,0,0-.15.68Z"/><path class="cls-2" d="M115,35.91h1.23v1h0a1.79,1.79,0,0,1,.8-.86,2.65,2.65,0,0,1,1.33-.33,2.74,2.74,0,0,1,.9.15,1.91,1.91,0,0,1,.75.45,2.08,2.08,0,0,1,.51.79,3,3,0,0,1,.2,1.14v4.27h-1.24V38.62a2.34,2.34,0,0,0-.12-.79,1.41,1.41,0,0,0-.33-.53,1.1,1.1,0,0,0-.47-.29,1.71,1.71,0,0,0-.55-.09,2.09,2.09,0,0,0-.72.12,1.51,1.51,0,0,0-.57.4,1.77,1.77,0,0,0-.38.69,3,3,0,0,0-.14,1v3.41H115Z"/><path class="cls-2" d="M123.57,39.69a1.73,1.73,0,0,0,.18.79,2.07,2.07,0,0,0,1.19,1,2.52,2.52,0,0,0,.82.14,1.82,1.82,0,0,0,1-.27,3.75,3.75,0,0,0,.78-.72l.93.72a3.37,3.37,0,0,1-2.87,1.36,3.41,3.41,0,0,1-1.39-.27,3,3,0,0,1-1.06-.73,3.09,3.09,0,0,1-.66-1.11,3.83,3.83,0,0,1-.23-1.37,3.64,3.64,0,0,1,.25-1.38,3.33,3.33,0,0,1,.7-1.11,3,3,0,0,1,1.06-.73,3.31,3.31,0,0,1,1.34-.27,3.12,3.12,0,0,1,1.46.31,3,3,0,0,1,1,.8A3.25,3.25,0,0,1,128.6,38a5,5,0,0,1,.17,1.27v.45Zm3.89-1a2.64,2.64,0,0,0-.13-.77,1.84,1.84,0,0,0-.35-.61,1.74,1.74,0,0,0-.58-.41,2.31,2.31,0,0,0-.82-.14,2.05,2.05,0,0,0-.83.17,2.15,2.15,0,0,0-1,1.08,1.88,1.88,0,0,0-.14.68Z"/><path class="cls-2" d="M136.75,42.54h-1.23v-.95h0a2.29,2.29,0,0,1-1,.83,3,3,0,0,1-1.28.29,3.34,3.34,0,0,1-1.36-.27,3,3,0,0,1-1-.74,3.14,3.14,0,0,1-.66-1.1,4.23,4.23,0,0,1,0-2.75,3.09,3.09,0,0,1,.66-1.11,3.06,3.06,0,0,1,1-.73,3.34,3.34,0,0,1,1.36-.27,3,3,0,0,1,1.32.3,2.22,2.22,0,0,1,.94.82h0V32h1.23Zm-3.36-1a2.18,2.18,0,0,0,.89-.18,2,2,0,0,0,.67-.48,2.14,2.14,0,0,0,.42-.72,3,3,0,0,0,0-1.87,2.14,2.14,0,0,0-.42-.72,2,2,0,0,0-1.56-.65,2.06,2.06,0,0,0-1.57.65,2.14,2.14,0,0,0-.42.72,3,3,0,0,0,0,1.87,2.14,2.14,0,0,0,.42.72,2,2,0,0,0,.68.48A2.11,2.11,0,0,0,133.39,41.54Z"/></g></svg>