<svg id="Common" xmlns="http://www.w3.org/2000/svg" viewBox="0 0 204.09 73.7"><defs><style>.cls-1{fill:#faae61;}.cls-2{fill:#fff;}</style></defs><title>Uncommon</title><rect class="cls-1" x="31.18" y="25.43" width="141.73" height="22.68" rx="11.34"/><path class="cls-2" d="M68.9,32.63v6.08a3.63,3.63,0,0,0,.13,1,2.77,2.77,0,0,0,.41.91,2.31,2.31,0,0,0,3.8,0,2.58,2.58,0,0,0,.41-.91,3.63,3.63,0,0,0,.13-1V32.63h1.31v6.29a4,4,0,0,1-.29,1.57A3.76,3.76,0,0,1,74,41.72a3.62,3.62,0,0,1-1.19.8,4.05,4.05,0,0,1-3,0,3.72,3.72,0,0,1-1.19-.8,3.76,3.76,0,0,1-.79-1.23,4,4,0,0,1-.29-1.57V32.63Z"/><path class="cls-2" d="M77.09,35.91h1.23v1h0a1.81,1.81,0,0,1,.81-.86,2.6,2.6,0,0,1,1.33-.33,2.68,2.68,0,0,1,.89.15,2,2,0,0,1,.76.45,2.34,2.34,0,0,1,.51.79,3.06,3.06,0,0,1,.19,1.14v4.27H81.61V38.62a2.34,2.34,0,0,0-.12-.79,1.71,1.71,0,0,0-.33-.53,1.32,1.32,0,0,0-.48-.29,1.67,1.67,0,0,0-.55-.09,2,2,0,0,0-.71.12,1.63,1.63,0,0,0-.58.4,1.9,1.9,0,0,0-.38.69,3.26,3.26,0,0,0-.14,1v3.41H77.09Z"/><path class="cls-2" d="M89.34,37.67a2.39,2.39,0,0,0-.71-.55,2,2,0,0,0-.9-.19,1.87,1.87,0,0,0-.88.19,1.61,1.61,0,0,0-.63.52,2.43,2.43,0,0,0-.39.75,3.3,3.3,0,0,0-.13.89,2.58,2.58,0,0,0,.15.88,2.19,2.19,0,0,0,.43.72,2.07,2.07,0,0,0,.65.48,2.19,2.19,0,0,0,1.76,0,2.33,2.33,0,0,0,.68-.56l.88.9a2.68,2.68,0,0,1-1.12.78,3.76,3.76,0,0,1-1.35.24,3.56,3.56,0,0,1-1.37-.25,3.08,3.08,0,0,1-1.08-.71,3.15,3.15,0,0,1-.7-1.09,3.93,3.93,0,0,1-.24-1.41,4,4,0,0,1,.24-1.41A3.17,3.17,0,0,1,86.39,36a3.66,3.66,0,0,1,1.39-.26,3.75,3.75,0,0,1,1.37.26,3,3,0,0,1,1.12.79Z"/><path class="cls-2" d="M91,39.23a3.58,3.58,0,0,1,.26-1.36A3.66,3.66,0,0,1,92,36.76,3.32,3.32,0,0,1,93.08,36a3.54,3.54,0,0,1,2.71,0,3.36,3.36,0,0,1,1.1.75,3.63,3.63,0,0,1,.73,1.11,3.4,3.4,0,0,1,.27,1.36,3.44,3.44,0,0,1-.27,1.36,3.37,3.37,0,0,1-1.83,1.85,3.54,3.54,0,0,1-2.71,0A3.45,3.45,0,0,1,92,41.7a3.54,3.54,0,0,1-.74-1.11A3.62,3.62,0,0,1,91,39.23Zm1.31,0a2.83,2.83,0,0,0,.15.93,2,2,0,0,0,.43.72,1.83,1.83,0,0,0,.67.48,2.11,2.11,0,0,0,.89.18,2.18,2.18,0,0,0,.89-.18,2,2,0,0,0,.67-.48,2.14,2.14,0,0,0,.42-.72,3,3,0,0,0,0-1.87,2.14,2.14,0,0,0-.42-.72,2,2,0,0,0-1.56-.65,2.11,2.11,0,0,0-.89.17,2,2,0,0,0-.67.48,2,2,0,0,0-.43.72A2.85,2.85,0,0,0,92.3,39.23Z"/><path class="cls-2" d="M99.43,35.91h1.15v1h0a1.27,1.27,0,0,1,.21-.35,2.47,2.47,0,0,1,.44-.4,3.09,3.09,0,0,1,.63-.32,2.28,2.28,0,0,1,.8-.13,2.1,2.1,0,0,1,2,1.23,2,2,0,0,1,.89-.92,2.38,2.38,0,0,1,1.16-.31A2.61,2.61,0,0,1,108,36a2.06,2.06,0,0,1,.76.67,2.39,2.39,0,0,1,.37.93,5.6,5.6,0,0,1,.11,1.09v3.86H108V38.85a5.74,5.74,0,0,0,0-.73,2,2,0,0,0-.2-.62,1.09,1.09,0,0,0-.43-.42,1.37,1.37,0,0,0-.72-.16,1.43,1.43,0,0,0-1.28.56,2.52,2.52,0,0,0-.38,1.44v3.62h-1.23V39.07a7.57,7.57,0,0,0,0-.87,2.26,2.26,0,0,0-.19-.68,1,1,0,0,0-.41-.44,1.37,1.37,0,0,0-.72-.16,1.53,1.53,0,0,0-1.18.53,2,2,0,0,0-.37.68,3.12,3.12,0,0,0-.13,1v3.44H99.43Z"/><path class="cls-2" d="M111.1,35.91h1.15v1h0a.91.91,0,0,1,.21-.35,2.17,2.17,0,0,1,.44-.4,2.64,2.64,0,0,1,.63-.32,2.24,2.24,0,0,1,.8-.13,2.18,2.18,0,0,1,1.21.31,2.23,2.23,0,0,1,.81.92,2.09,2.09,0,0,1,.89-.92,2.41,2.41,0,0,1,1.17-.31,2.61,2.61,0,0,1,1.23.25,2,2,0,0,1,.75.67,2.57,2.57,0,0,1,.38.93,5.6,5.6,0,0,1,.1,1.09v3.86h-1.23V38.85a5.71,5.71,0,0,0,0-.73,1.74,1.74,0,0,0-.2-.62,1.13,1.13,0,0,0-.42-.42,1.73,1.73,0,0,0-2,.4,2.45,2.45,0,0,0-.38,1.44v3.62h-1.24V39.07a7.71,7.71,0,0,0,0-.87,2.26,2.26,0,0,0-.2-.68,1,1,0,0,0-.41-.44,1.35,1.35,0,0,0-.72-.16,1.55,1.55,0,0,0-.63.13,1.41,1.41,0,0,0-.54.4,1.84,1.84,0,0,0-.37.68,3.1,3.1,0,0,0-.14,1v3.44H111.1Z"/><path class="cls-2" d="M122.45,39.23a3.4,3.4,0,0,1,.27-1.36,3.45,3.45,0,0,1,.73-1.11,3.32,3.32,0,0,1,1.09-.75,3.54,3.54,0,0,1,2.71,0,3.36,3.36,0,0,1,1.1.75,3.63,3.63,0,0,1,.73,1.11,3.4,3.4,0,0,1,.27,1.36,3.44,3.44,0,0,1-.27,1.36,3.37,3.37,0,0,1-1.83,1.85,3.54,3.54,0,0,1-2.71,0,3.45,3.45,0,0,1-1.09-.74,3.35,3.35,0,0,1-.73-1.11A3.44,3.44,0,0,1,122.45,39.23Zm1.31,0a2.83,2.83,0,0,0,.15.93,2,2,0,0,0,.43.72,1.83,1.83,0,0,0,.67.48,2.11,2.11,0,0,0,.89.18,2.14,2.14,0,0,0,.89-.18,1.91,1.91,0,0,0,.67-.48,2.14,2.14,0,0,0,.42-.72,3,3,0,0,0,0-1.87,2.14,2.14,0,0,0-.42-.72,2,2,0,0,0-.67-.48,2.14,2.14,0,0,0-.89-.17,2.11,2.11,0,0,0-.89.17,2,2,0,0,0-.67.48,2,2,0,0,0-.43.72A2.85,2.85,0,0,0,123.76,39.23Z"/><path class="cls-2" d="M130.9,35.91h1.23v1h0a1.86,1.86,0,0,1,.81-.86,2.65,2.65,0,0,1,1.33-.33,2.74,2.74,0,0,1,.9.15,2,2,0,0,1,.75.45,2.2,2.2,0,0,1,.51.79,3.05,3.05,0,0,1,.2,1.14v4.27h-1.24V38.62a2.34,2.34,0,0,0-.12-.79,1.41,1.41,0,0,0-.33-.53,1.28,1.28,0,0,0-.47-.29,1.73,1.73,0,0,0-.56-.09,2.08,2.08,0,0,0-.71.12,1.51,1.51,0,0,0-.57.4,1.92,1.92,0,0,0-.39.69,3.28,3.28,0,0,0-.13,1v3.41H130.9Z"/></svg>